<svg width="24" height="24" viewBox="0 0 24 24" fill="none" xmlns="http://www.w3.org/2000/svg">
<path fill-rule="evenodd" clip-rule="evenodd" d="M1.38945 21.5455C0.62769 20.8043 0.626037 19.5812 1.38579 18.8379L19.0594 1.54863C19.7931 0.830896 20.9654 0.829312 21.701 1.54506C22.4627 2.28624 22.4644 3.50939 21.7046 4.25262L4.03099 21.5419C3.2973 22.2597 2.12508 22.2613 1.38945 21.5455Z" fill="black"/>
<path fill-rule="evenodd" clip-rule="evenodd" d="M1.38953 1.54499C2.12515 0.829243 3.29738 0.830827 4.03106 1.54856L21.7047 18.8379C22.4645 19.5811 22.4628 20.8043 21.7011 21.5454C20.9654 22.2612 19.7932 22.2596 19.0595 21.5419L1.38587 4.25255C0.626115 3.50932 0.627768 2.28617 1.38953 1.54499Z" fill="black"/>
</svg>
