<svg width="133" height="21" viewBox="0 0 133 21" fill="none" xmlns="http://www.w3.org/2000/svg">
<path d="M12.5325 13.5518C11.3592 14.5429 9.84423 15.0348 8.3125 14.9218H8.2225C5.18238 14.8562 2.76337 12.3523 2.8025 9.31177C2.75221 6.26173 5.17288 3.74281 8.2225 3.67177H8.5425C10.006 3.65298 11.4268 4.16448 12.5425 5.11177L13.7125 4.02177L14.3125 3.48177C12.7283 1.88853 10.5586 1.01701 8.3125 1.07177C8.1625 1.07177 8.0125 1.07177 7.8725 1.07177C3.53849 1.26124 0.16577 4.9061 0.312504 9.24177C0.312504 13.7518 3.7025 17.4018 7.8925 17.4018H7.9825C10.3326 17.5811 12.6441 16.7266 14.3125 15.0618L13.7025 14.5318L12.5325 13.5518Z" fill="white"/>
<path fill-rule="evenodd" clip-rule="evenodd" d="M51.5925 0.921875V17.1219L49.4925 17.1119V16.2919C48.5697 16.9928 47.4509 17.3879 46.2925 17.4219H45.7925C44.4496 17.3771 43.1664 16.856 42.1725 15.9519L42.1225 15.8919L41.9625 15.7619L41.7025 15.4919C41.0059 14.6385 40.5902 13.5907 40.5125 12.4919V12.3819V11.7319C40.4973 11.4554 40.4973 11.1783 40.5125 10.9019C40.5957 9.80254 41.0146 8.7553 41.7125 7.90188C41.7941 7.81028 41.8809 7.72347 41.9725 7.64187L42.0425 7.58187L42.2525 7.38188L42.5825 7.11188C43.3597 6.53599 44.2726 6.17084 45.2325 6.05188C45.3923 6.04197 45.5527 6.04197 45.7125 6.05188H46.2925C46.449 6.0424 46.606 6.0424 46.7625 6.05188C47.7229 6.16905 48.6362 6.53438 49.4125 7.11188V1.92188L51.5925 0.921875ZM49.2925 13.1119C49.4028 12.7888 49.47 12.4525 49.4925 12.1119L49.3925 12.0919C49.4249 11.8095 49.4249 11.5243 49.3925 11.2419C49.3375 10.5305 49.0652 9.8533 48.6125 9.30188C48.2749 8.90621 47.8552 8.58885 47.3825 8.37187C46.9605 8.20623 46.515 8.10836 46.0625 8.08187H45.8625C45.4134 8.10956 44.9713 8.20742 44.5525 8.37187C43.4114 8.89115 42.6446 9.9916 42.5525 11.2419C42.5274 11.5146 42.5274 11.7891 42.5525 12.0619C42.5783 12.403 42.6489 12.7392 42.7625 13.0619V13.1519C42.8881 13.4986 43.0743 13.8203 43.3125 14.1019C43.6899 14.5428 44.171 14.8831 44.7125 15.0919C45.1219 15.2501 45.5541 15.3413 45.9925 15.3619H46.1925C46.6311 15.3427 47.0635 15.2515 47.4725 15.0919C47.9598 14.8806 48.3912 14.5588 48.7325 14.1519C48.9704 13.8683 49.1596 13.5473 49.2925 13.2019V13.1119Z" fill="white"/>
<path d="M17.2525 1.5918L15.0325 2.5918V17.4218H17.2525V1.5918Z" fill="white"/>
<path fill-rule="evenodd" clip-rule="evenodd" d="M27.9125 7.92191C28.6104 8.77534 29.0293 9.82258 29.1125 10.9219C29.1247 11.2019 29.1214 11.4823 29.1025 11.7619V12.4119V12.5219C29.0258 13.6227 28.6062 14.6719 27.9025 15.5219C27.8546 15.5818 27.8031 15.6345 27.7523 15.6866C27.7183 15.7214 27.6846 15.7558 27.6525 15.7919C27.6073 15.8405 27.557 15.8841 27.5025 15.9219H27.4525C26.4573 16.8393 25.1653 17.3681 23.8125 17.4119H23.3125C21.9906 17.3329 20.7396 16.7872 19.7825 15.8719H19.7225L19.5725 15.7419C19.4808 15.6569 19.394 15.5668 19.3125 15.4719C18.6129 14.6195 18.1937 13.5717 18.1125 12.4719V12.3619V11.7119C18.0924 11.4356 18.0924 11.1582 18.1125 10.8819C18.1912 9.78154 18.6106 8.73298 19.3125 7.88191C19.3941 7.79032 19.4809 7.70351 19.5725 7.62191L19.6525 7.56191C19.6922 7.51563 19.7362 7.47372 19.7817 7.4304C19.8051 7.4082 19.8288 7.38563 19.8525 7.36191L20.1925 7.09191C20.9688 6.51442 21.8821 6.14909 22.8425 6.03191C22.999 6.02203 23.156 6.02203 23.3125 6.03191H23.8425C23.999 6.02159 24.156 6.02159 24.3125 6.03191C25.3043 6.1486 26.2469 6.52839 27.0425 7.13191L27.3725 7.40191L27.5825 7.60191L27.6525 7.66191L27.9125 7.92191ZM26.8025 13.0919C26.9161 12.7692 26.9867 12.433 27.0125 12.0919C27.051 11.8204 27.0643 11.5459 27.0525 11.2719C26.9604 10.0216 26.1936 8.92119 25.0525 8.40191C24.6336 8.23745 24.1916 8.1396 23.7425 8.11191H23.5425C23.09 8.1384 22.6445 8.23627 22.2225 8.40191C21.7483 8.61633 21.328 8.93408 20.9925 9.33191C20.5406 9.88472 20.2653 10.5607 20.2025 11.2719C20.1824 11.5449 20.1824 11.8189 20.2025 12.0919C20.2335 12.4323 20.304 12.7678 20.4125 13.0919V13.1819C20.5417 13.5291 20.7313 13.8508 20.9725 14.1319C21.3138 14.5388 21.7452 14.8607 22.2325 15.0719C22.6415 15.2315 23.0739 15.3228 23.5125 15.3419H23.7125C24.1509 15.3213 24.5831 15.2302 24.9925 15.0719C25.4783 14.8582 25.9092 14.5367 26.2525 14.1319C26.4907 13.8504 26.6769 13.5287 26.8025 13.1819V13.0919Z" fill="white"/>
<path d="M37.5025 16.302C37.5516 16.2613 37.5984 16.2179 37.6425 16.172V17.172H39.7425V6.75195H37.5225V12.212C37.5275 12.3052 37.5275 12.3987 37.5225 12.492V12.582C37.4815 13.2569 37.2137 13.8983 36.7625 14.402C36.1985 14.9759 35.4162 15.2815 34.6125 15.242C33.914 15.2861 33.231 15.0231 32.7425 14.522C32.2563 13.908 32.0205 13.1327 32.0825 12.352V6.75195H29.8025V12.842C29.8025 13.052 29.8025 13.242 29.8025 13.442C29.9044 15.4732 31.4536 17.1364 33.4725 17.382C34.0638 17.4519 34.6612 17.4519 35.2525 17.382C36.0824 17.3019 36.8626 16.9504 37.4725 16.382L37.5025 16.302Z" fill="white"/>
<path d="M92.3125 14.4819C90.3125 15.7919 88.3725 15.6819 87.0625 14.1719C86.8243 13.8904 86.638 13.5687 86.5125 13.2219V13.1319C86.404 12.8079 86.3335 12.4723 86.3025 12.1319C86.2824 11.859 86.2824 11.5849 86.3025 11.3119C86.3653 10.6007 86.6406 9.92476 87.0925 9.37195C88.3825 7.92195 90.3725 7.78195 92.3125 9.09195C92.6525 8.77195 92.9925 8.46195 93.3125 8.09195L93.7225 7.71195C92.5926 6.59419 91.053 5.99002 89.4644 6.04108C87.8759 6.09214 86.3782 6.79393 85.3225 7.98195C84.6206 8.83301 84.2011 9.88157 84.1225 10.9819C84.1024 11.2582 84.1024 11.5356 84.1225 11.8119C84.1225 12.0319 84.1225 12.2519 84.1225 12.4619V12.5719C84.2037 13.6717 84.6229 14.7195 85.3225 15.5719C86.3768 16.7613 87.8738 17.465 89.4623 17.5179C91.0508 17.5709 92.5913 16.9685 93.7225 15.8519L93.5825 15.7119L92.3125 14.4819Z" fill="white"/>
<path d="M71.6025 11.3418C70.8825 8.87175 67.7825 8.40175 66.2025 8.17175C65.6625 8.09175 61.8825 7.72175 62.1425 5.45175C62.3125 3.79175 65.3125 2.97175 67.4825 3.77175C68.1554 3.99756 68.7583 4.39375 69.2325 4.92175L71.3725 3.98175C71.0553 3.47058 70.6606 3.01178 70.2025 2.62175C69.0415 1.61042 67.5415 1.0747 66.0025 1.12175C62.0925 1.16175 60.2225 2.92175 59.8125 4.85175C59.4025 6.78175 59.6925 9.42175 64.6325 10.2918C68.7925 11.0318 69.6825 11.6318 69.1225 13.4418C68.6125 15.0618 63.3125 16.3218 61.3125 12.7918L59.0725 13.7918C60.174 16.2088 62.6634 17.6849 65.3125 17.4918C70.5325 17.4818 72.4525 14.2218 71.6025 11.3418Z" fill="white"/>
<path d="M102.112 16.3818C102.161 16.341 102.208 16.2976 102.252 16.2518V17.2518H104.312V6.83179H102.092V12.2918C102.097 12.3817 102.097 12.4719 102.092 12.5618V12.6518C102.054 13.3303 101.786 13.9755 101.332 14.4818C100.768 15.0557 99.9862 15.3614 99.1825 15.3218C98.484 15.3659 97.801 15.103 97.3125 14.6018C96.8307 13.9859 96.5987 13.2111 96.6625 12.4318V6.83179H94.4125V12.9218C94.4019 13.125 94.4019 13.3286 94.4125 13.5318C94.5136 15.5597 96.0575 17.2217 98.0725 17.4718C98.6638 17.5417 99.2612 17.5417 99.8525 17.4718C100.683 17.3939 101.464 17.0421 102.072 16.4718L102.112 16.3818Z" fill="white"/>
<path fill-rule="evenodd" clip-rule="evenodd" d="M82.3825 11.2319L81.4625 11.6519L81.5125 11.6919L75.6025 14.3919C75.9084 14.7196 76.2752 14.9845 76.6825 15.1719C77.0932 15.3254 77.5247 15.4164 77.9625 15.4419H78.1625C78.6005 15.4185 79.0323 15.3274 79.4425 15.1719C79.9123 14.9591 80.3316 14.6489 80.6725 14.2619L82.3425 15.6619L82.1425 15.8719L81.9925 16.0119L81.9325 16.0619C80.9434 16.975 79.658 17.5005 78.3125 17.5419H77.8625C76.5174 17.4987 75.2326 16.9734 74.2425 16.0619V16.0119L74.0825 15.8719L73.8325 15.6119C73.1306 14.7608 72.7111 13.7122 72.6325 12.6119V12.5019V11.8519C72.6175 11.5721 72.6175 11.2917 72.6325 11.0119C72.7157 9.91252 73.1346 8.86528 73.8325 8.01186C73.914 7.91702 74.0008 7.82687 74.0925 7.74186L74.1625 7.67186L74.3725 7.48186L74.7025 7.21186C75.4823 6.63397 76.3989 6.2687 77.3625 6.15186H77.8425H78.3525H78.8225C79.7829 6.26904 80.6962 6.63436 81.4725 7.21186C81.5888 7.29391 81.699 7.38414 81.8025 7.48186C81.8771 7.53988 81.9473 7.60339 82.0125 7.67186C82.0406 7.68983 82.0645 7.71372 82.0825 7.74186C82.1742 7.82687 82.261 7.91702 82.3425 8.01186C82.5067 8.19841 82.6539 8.3992 82.7825 8.61186C83.1592 9.25724 83.404 9.97107 83.5025 10.7119L82.3825 11.2319ZM74.6025 12.1719V12.3419L80.7725 9.53186L80.6825 9.40186C80.3422 9.00913 79.9231 8.69229 79.4525 8.47186C79.0287 8.314 78.5839 8.21965 78.1325 8.19186H77.9325C77.4845 8.22077 77.0432 8.3151 76.6225 8.47186C76.1503 8.68965 75.7307 9.00689 75.3925 9.40186C74.9365 9.95612 74.6609 10.6365 74.6025 11.3519C74.5774 11.6246 74.5774 11.8991 74.6025 12.1719Z" fill="white"/>
<path d="M111.312 6.64197C110.802 6.60652 110.289 6.62664 109.782 6.70197C108.953 6.78206 108.172 7.13354 107.562 7.70197C107.562 7.70197 107.462 7.78197 107.422 7.83197V6.92197H105.312V17.292H107.533V11.832C107.528 11.7387 107.528 11.6452 107.533 11.552V11.472C107.577 10.791 107.852 10.1455 108.312 9.64197C108.877 9.06805 109.659 8.76241 110.463 8.80197C110.75 8.80223 111.036 8.84262 111.312 8.92197V6.64197Z" fill="white"/>
<rect x="112.353" y="6.63184" width="2.21" height="10.66" fill="white"/>
<rect x="112.353" y="3.55176" width="2.21" height="2.21" fill="white"/>
<path d="M121.203 15.3219L120.993 14.9619L120.783 15.0419C118.993 15.6319 118.043 15.0419 118.023 13.1919C118.023 12.0219 118.023 10.8519 118.023 9.69187V8.03188H121.383V5.97187H118.033V2.92188L115.613 4.01188V13.9219C115.568 15.4071 116.49 16.7502 117.893 17.2419C119.285 17.6668 120.789 17.5304 122.083 16.8619C121.843 16.4319 121.523 15.9219 121.203 15.3219Z" fill="white"/>
<path d="M125.363 18.5519L124.583 20.4119H126.833L132.903 5.97192H130.633L127.343 13.8119L124.013 5.97192H121.753L126.213 16.5219L125.363 18.5519Z" fill="white"/>
</svg>
