<svg width="541" height="399" viewBox="0 0 541 399" fill="none" xmlns="http://www.w3.org/2000/svg">
<g clip-path="url(#clip0_0_870)">
<g filter="url(#filter0_d_0_870)">
<rect x="60" y="28" width="382" height="260" rx="5" fill="white"/>
</g>
<rect y="74" width="120" height="37" fill="url(#paint0_linear_0_870)"/>
<g filter="url(#filter1_d_0_870)">
<rect x="96" width="314" height="319" rx="5" fill="white"/>
</g>
<rect x="410" y="200" width="131" height="37" fill="url(#paint1_linear_0_870)"/>
<rect y="362" width="495" height="37" fill="url(#paint2_linear_0_870)"/>
<rect x="117" y="83" width="268" height="35" rx="1" fill="#F5F5FA"/>
<rect opacity="0.5" x="320" y="131" width="49" height="16" rx="1" fill="#A790FF"/>
<rect opacity="0.5" x="130" y="134" width="55" height="10" rx="2" fill="#253858"/>
<rect opacity="0.5" x="320" y="157" width="49" height="16" rx="1" fill="#A790FF"/>
<rect opacity="0.5" x="130" y="160" width="55" height="10" rx="2" fill="#253858"/>
<rect opacity="0.5" x="320" y="183" width="49" height="16" rx="1" fill="#A790FF"/>
<rect opacity="0.5" x="130" y="186" width="55" height="10" rx="2" fill="#253858"/>
<rect opacity="0.5" x="320" y="211" width="49" height="16" rx="1" fill="#A790FF"/>
<rect opacity="0.5" x="130" y="214" width="55" height="10" rx="2" fill="#253858"/>
<rect opacity="0.5" x="320" y="242" width="49" height="16" rx="1" fill="#A790FF"/>
<rect opacity="0.5" x="130" y="245" width="55" height="10" rx="2" fill="#253858"/>
<rect x="117" y="24" width="80" height="15" rx="2" fill="#253858"/>
<rect x="211" y="24" width="80" height="15" rx="2" fill="#6D4BFF"/>
<path opacity="0.1" d="M96.5 57.5H409.5" stroke="#4F5F83" stroke-linecap="square"/>
<path d="M139.124 96.456V105H137.972L133.364 99.012V105H131.924V96.456H133.076L137.672 102.432V96.456H139.124ZM146.671 98.94V105H145.195V104.028C145.011 104.364 144.747 104.628 144.403 104.82C144.059 105.004 143.667 105.096 143.227 105.096C142.699 105.096 142.231 104.968 141.823 104.712C141.415 104.456 141.099 104.092 140.875 103.62C140.651 103.148 140.539 102.6 140.539 101.976C140.539 101.352 140.651 100.8 140.875 100.32C141.107 99.832 141.427 99.456 141.835 99.192C142.243 98.92 142.707 98.784 143.227 98.784C143.667 98.784 144.059 98.88 144.403 99.072C144.747 99.256 145.011 99.516 145.195 99.852V98.94H146.671ZM143.635 103.92C144.131 103.92 144.515 103.748 144.787 103.404C145.059 103.06 145.195 102.576 145.195 101.952C145.195 101.312 145.059 100.82 144.787 100.476C144.515 100.132 144.127 99.96 143.623 99.96C143.127 99.96 142.739 100.14 142.459 100.5C142.187 100.852 142.051 101.344 142.051 101.976C142.051 102.6 142.187 103.08 142.459 103.416C142.739 103.752 143.131 103.92 143.635 103.92ZM155.456 98.784C156.144 98.784 156.656 98.992 156.992 99.408C157.328 99.816 157.496 100.44 157.496 101.28V105H155.996V101.328C155.996 100.848 155.916 100.504 155.756 100.296C155.604 100.08 155.348 99.972 154.988 99.972C154.572 99.972 154.244 100.12 154.004 100.416C153.772 100.704 153.656 101.104 153.656 101.616V105H152.156V101.328C152.156 100.856 152.072 100.512 151.904 100.296C151.744 100.08 151.488 99.972 151.136 99.972C150.72 99.972 150.392 100.12 150.152 100.416C149.912 100.704 149.792 101.104 149.792 101.616V105H148.304V100.656C148.304 100.016 148.272 99.444 148.208 98.94H149.612L149.72 99.9C149.896 99.54 150.148 99.264 150.476 99.072C150.812 98.88 151.196 98.784 151.628 98.784C152.556 98.784 153.16 99.168 153.44 99.936C153.632 99.576 153.904 99.296 154.256 99.096C154.616 98.888 155.016 98.784 155.456 98.784ZM164.401 102.048H160.225C160.257 102.696 160.417 103.176 160.705 103.488C161.001 103.792 161.437 103.944 162.013 103.944C162.677 103.944 163.293 103.728 163.861 103.296L164.293 104.328C164.005 104.56 163.649 104.748 163.225 104.892C162.809 105.028 162.385 105.096 161.953 105.096C160.961 105.096 160.181 104.816 159.613 104.256C159.045 103.696 158.761 102.928 158.761 101.952C158.761 101.336 158.885 100.788 159.133 100.308C159.381 99.828 159.729 99.456 160.177 99.192C160.625 98.92 161.133 98.784 161.701 98.784C162.533 98.784 163.189 99.056 163.669 99.6C164.157 100.136 164.401 100.876 164.401 101.82V102.048ZM161.737 99.864C161.337 99.864 161.009 99.984 160.753 100.224C160.505 100.456 160.345 100.796 160.273 101.244H163.093C163.045 100.788 162.905 100.444 162.673 100.212C162.449 99.98 162.137 99.864 161.737 99.864Z" fill="#253858"/>
<path d="M326.816 105.108C326.16 105.108 325.544 105.02 324.968 104.844C324.4 104.668 323.916 104.416 323.516 104.088L324.044 102.96C324.46 103.272 324.892 103.504 325.34 103.656C325.796 103.8 326.292 103.872 326.828 103.872C327.42 103.872 327.876 103.768 328.196 103.56C328.524 103.352 328.688 103.06 328.688 102.684C328.688 102.364 328.536 102.12 328.232 101.952C327.936 101.776 327.444 101.612 326.756 101.46C325.684 101.228 324.904 100.928 324.416 100.56C323.928 100.192 323.684 99.656 323.684 98.952C323.684 98.448 323.82 98 324.092 97.608C324.364 97.216 324.748 96.908 325.244 96.684C325.748 96.46 326.328 96.348 326.984 96.348C327.584 96.348 328.152 96.44 328.688 96.624C329.232 96.8 329.676 97.048 330.02 97.368L329.504 98.496C328.744 97.888 327.904 97.584 326.984 97.584C326.432 97.584 325.996 97.7 325.676 97.932C325.356 98.156 325.196 98.464 325.196 98.856C325.196 99.192 325.336 99.448 325.616 99.624C325.904 99.8 326.392 99.964 327.08 100.116C327.792 100.284 328.372 100.468 328.82 100.668C329.268 100.86 329.612 101.112 329.852 101.424C330.092 101.728 330.212 102.112 330.212 102.576C330.212 103.088 330.076 103.536 329.804 103.92C329.532 104.296 329.14 104.588 328.628 104.796C328.116 105.004 327.512 105.108 326.816 105.108ZM333.365 100.068V102.78C333.365 103.492 333.697 103.848 334.361 103.848C334.545 103.848 334.745 103.816 334.961 103.752V104.94C334.697 105.036 334.377 105.084 334.001 105.084C333.313 105.084 332.785 104.892 332.417 104.508C332.049 104.124 331.865 103.572 331.865 102.852V100.068H330.701V98.94H331.865V97.464L333.365 96.96V98.94H334.973V100.068H333.365ZM341.799 98.94V105H340.324V104.028C340.14 104.364 339.876 104.628 339.532 104.82C339.188 105.004 338.796 105.096 338.355 105.096C337.828 105.096 337.36 104.968 336.951 104.712C336.544 104.456 336.228 104.092 336.004 103.62C335.78 103.148 335.668 102.6 335.668 101.976C335.668 101.352 335.78 100.8 336.004 100.32C336.236 99.832 336.556 99.456 336.964 99.192C337.372 98.92 337.836 98.784 338.355 98.784C338.796 98.784 339.188 98.88 339.532 99.072C339.876 99.256 340.14 99.516 340.324 99.852V98.94H341.799ZM338.764 103.92C339.26 103.92 339.644 103.748 339.916 103.404C340.188 103.06 340.324 102.576 340.324 101.952C340.324 101.312 340.188 100.82 339.916 100.476C339.644 100.132 339.256 99.96 338.752 99.96C338.256 99.96 337.868 100.14 337.588 100.5C337.316 100.852 337.18 101.344 337.18 101.976C337.18 102.6 337.316 103.08 337.588 103.416C337.868 103.752 338.26 103.92 338.764 103.92ZM345.341 100.068V102.78C345.341 103.492 345.673 103.848 346.337 103.848C346.521 103.848 346.721 103.816 346.937 103.752V104.94C346.673 105.036 346.353 105.084 345.977 105.084C345.289 105.084 344.761 104.892 344.393 104.508C344.025 104.124 343.841 103.572 343.841 102.852V100.068H342.677V98.94H343.841V97.464L345.341 96.96V98.94H346.949V100.068H345.341ZM353.5 98.94V105H352.036V104.064C351.844 104.4 351.588 104.656 351.268 104.832C350.948 105.008 350.58 105.096 350.164 105.096C348.684 105.096 347.944 104.264 347.944 102.6V98.94H349.432V102.612C349.432 103.052 349.52 103.376 349.696 103.584C349.88 103.792 350.16 103.896 350.536 103.896C350.976 103.896 351.328 103.752 351.592 103.464C351.856 103.176 351.988 102.792 351.988 102.312V98.94H353.5ZM357.349 105.096C356.253 105.096 355.381 104.84 354.733 104.328L355.153 103.272C355.801 103.752 356.541 103.992 357.373 103.992C357.733 103.992 358.009 103.932 358.201 103.812C358.401 103.692 358.501 103.524 358.501 103.308C358.501 103.124 358.433 102.98 358.297 102.876C358.161 102.764 357.929 102.668 357.601 102.588L356.593 102.36C355.489 102.12 354.937 101.556 354.937 100.668C354.937 100.3 355.041 99.976 355.249 99.696C355.457 99.408 355.749 99.184 356.125 99.024C356.501 98.864 356.937 98.784 357.433 98.784C357.865 98.784 358.281 98.852 358.681 98.988C359.081 99.116 359.433 99.304 359.737 99.552L359.293 100.572C358.685 100.124 358.061 99.9 357.421 99.9C357.077 99.9 356.809 99.964 356.617 100.092C356.425 100.22 356.329 100.396 356.329 100.62C356.329 100.796 356.385 100.936 356.497 101.04C356.617 101.144 356.817 101.232 357.097 101.304L358.129 101.532C358.729 101.668 359.165 101.88 359.437 102.168C359.717 102.448 359.857 102.816 359.857 103.272C359.857 103.832 359.633 104.276 359.185 104.604C358.737 104.932 358.125 105.096 357.349 105.096Z" fill="#253858"/>
</g>
<defs>
<filter id="filter0_d_0_870" x="24" y="-6" width="454" height="332" filterUnits="userSpaceOnUse" color-interpolation-filters="sRGB">
<feFlood flood-opacity="0" result="BackgroundImageFix"/>
<feColorMatrix in="SourceAlpha" type="matrix" values="0 0 0 0 0 0 0 0 0 0 0 0 0 0 0 0 0 0 127 0" result="hardAlpha"/>
<feOffset dy="2"/>
<feGaussianBlur stdDeviation="18"/>
<feColorMatrix type="matrix" values="0 0 0 0 0 0 0 0 0 0 0 0 0 0 0 0 0 0 0.113391 0"/>
<feBlend mode="normal" in2="BackgroundImageFix" result="effect1_dropShadow_0_870"/>
<feBlend mode="normal" in="SourceGraphic" in2="effect1_dropShadow_0_870" result="shape"/>
</filter>
<filter id="filter1_d_0_870" x="60" y="-34" width="386" height="391" filterUnits="userSpaceOnUse" color-interpolation-filters="sRGB">
<feFlood flood-opacity="0" result="BackgroundImageFix"/>
<feColorMatrix in="SourceAlpha" type="matrix" values="0 0 0 0 0 0 0 0 0 0 0 0 0 0 0 0 0 0 127 0" result="hardAlpha"/>
<feOffset dy="2"/>
<feGaussianBlur stdDeviation="18"/>
<feColorMatrix type="matrix" values="0 0 0 0 0 0 0 0 0 0 0 0 0 0 0 0 0 0 0.113391 0"/>
<feBlend mode="normal" in2="BackgroundImageFix" result="effect1_dropShadow_0_870"/>
<feBlend mode="normal" in="SourceGraphic" in2="effect1_dropShadow_0_870" result="shape"/>
</filter>
<linearGradient id="paint0_linear_0_870" x1="120" y1="74" x2="0" y2="74" gradientUnits="userSpaceOnUse">
<stop stop-color="#6D4BFF" stop-opacity="0.303158"/>
<stop offset="1" stop-color="#6D4BFF" stop-opacity="0.01"/>
</linearGradient>
<linearGradient id="paint1_linear_0_870" x1="399.539" y1="238.477" x2="541" y2="238.477" gradientUnits="userSpaceOnUse">
<stop stop-color="#09D0BD" stop-opacity="0.3"/>
<stop offset="1" stop-color="#09D0BD" stop-opacity="0.01"/>
</linearGradient>
<linearGradient id="paint2_linear_0_870" x1="0" y1="399" x2="495" y2="399" gradientUnits="userSpaceOnUse">
<stop stop-color="#09D0BD" stop-opacity="0.01"/>
<stop offset="0.500924" stop-color="#09D0BD" stop-opacity="0.3"/>
<stop offset="1" stop-color="#09D0BD" stop-opacity="0.01"/>
</linearGradient>
<clipPath id="clip0_0_870">
<rect width="541" height="399" fill="white"/>
</clipPath>
</defs>
</svg>
