<svg width="505" height="464" viewBox="0 0 505 464" fill="none" xmlns="http://www.w3.org/2000/svg">
<path opacity="0.2" d="M228.272 345.541C281.993 345.541 325.543 301.768 325.543 247.77C325.543 193.773 281.993 150 228.272 150C174.55 150 131 193.773 131 247.77C131 301.768 174.55 345.541 228.272 345.541Z" fill="#D8D8D8" stroke="#979797" stroke-width="2.26"/>
<path d="M228.272 326.585C271.578 326.585 306.684 291.299 306.684 247.77C306.684 204.242 271.578 168.955 228.272 168.955C184.965 168.955 149.859 204.242 149.859 247.77C149.859 291.299 184.965 326.585 228.272 326.585Z" fill="black"/>
<path d="M228.272 326.585C271.578 326.585 306.684 291.299 306.684 247.77C306.684 204.242 271.578 168.955 228.272 168.955C184.965 168.955 149.859 204.242 149.859 247.77C149.859 291.299 184.965 326.585 228.272 326.585Z" fill="white" stroke="#A7AFA9" stroke-opacity="0.325" stroke-width="1.13"/>
<path d="M301.024 463.079L292.747 404.355C357.01 376.299 398.754 310.159 394.035 237.786L451.147 229.782C459.843 332.831 398.004 427.214 303.885 462.041L301.024 463.079Z" fill="url(#paint0_radial_0_370)"/>
<path d="M425.718 291.415C434.626 288.691 439.634 279.245 436.904 270.316C434.174 261.387 424.74 256.356 415.832 259.079C406.924 261.803 401.916 271.249 404.645 280.178C407.375 289.107 416.81 294.138 425.718 291.415Z" fill="white"/>
<path fill-rule="evenodd" clip-rule="evenodd" d="M419.88 267.049C422.048 266.973 423.867 268.673 423.942 270.846C424.018 273.019 422.323 274.842 420.155 274.917C417.987 274.993 416.169 273.293 416.093 271.12C416.017 268.947 417.713 267.125 419.88 267.049ZM423.349 276.38C425.455 276.307 427.231 277.909 427.401 279.993L427.412 280.178L427.467 281.752C427.477 282.165 427.168 282.516 426.757 282.556C426.347 282.596 425.976 282.312 425.906 281.904L425.897 281.806L425.842 280.232C425.798 278.979 424.788 277.988 423.554 277.954L423.404 277.954L417.125 278.173C415.882 278.216 414.887 279.22 414.852 280.466L414.853 280.616L414.908 282.191C414.918 282.604 414.609 282.955 414.198 282.995C413.788 283.035 413.417 282.75 413.347 282.343L413.338 282.244L413.283 280.671C413.209 278.56 414.807 276.78 416.885 276.611L417.07 276.6L417.07 276.6L423.349 276.38ZM417.899 269.863C418.304 269.111 419.083 268.637 419.935 268.623L419.935 268.622C421.236 268.577 422.327 269.597 422.373 270.901C422.418 272.205 421.401 273.298 420.1 273.344C419.249 273.39 418.439 272.972 417.982 272.25C417.525 271.528 417.493 270.615 417.899 269.863Z" fill="#6D4BFF"/>
<path d="M413.705 333.565C422.613 330.841 427.621 321.395 424.892 312.466C422.162 303.537 412.727 298.506 403.819 301.229C394.911 303.953 389.903 313.399 392.633 322.328C395.363 331.258 404.797 336.288 413.705 333.565Z" fill="white"/>
<path fill-rule="evenodd" clip-rule="evenodd" d="M407.868 309.199C410.036 309.124 411.854 310.824 411.93 312.996C412.006 315.169 410.31 316.992 408.143 317.068C405.975 317.143 404.156 315.443 404.08 313.271C404.005 311.098 405.7 309.275 407.868 309.199ZM411.337 318.531C413.443 318.457 415.219 320.059 415.389 322.143L415.399 322.328L415.454 323.902C415.465 324.315 415.155 324.666 414.745 324.706C414.335 324.747 413.963 324.462 413.894 324.054L413.885 323.956L413.83 322.383C413.786 321.129 412.776 320.139 411.541 320.104L411.392 320.104L405.113 320.323C403.87 320.367 402.875 321.371 402.84 322.617L402.84 322.766L402.895 324.341C402.906 324.754 402.596 325.105 402.186 325.145C401.776 325.185 401.404 324.9 401.335 324.493L401.326 324.395L401.271 322.821C401.197 320.71 402.795 318.93 404.873 318.761L405.057 318.75L405.058 318.75L411.337 318.531ZM405.886 312.013C406.291 311.261 407.07 310.787 407.923 310.774L407.923 310.773C409.224 310.727 410.315 311.747 410.36 313.051C410.406 314.355 409.388 315.449 408.088 315.494C407.236 315.54 406.426 315.122 405.97 314.4C405.513 313.678 405.481 312.765 405.886 312.013Z" fill="#6D4BFF"/>
<path d="M395.495 372.41C404.403 369.687 409.411 360.241 406.681 351.311C403.952 342.382 394.517 337.351 385.609 340.075C376.701 342.798 371.693 352.245 374.423 361.174C377.153 370.103 386.587 375.134 395.495 372.41Z" fill="white"/>
<path fill-rule="evenodd" clip-rule="evenodd" d="M389.658 348.045C391.825 347.969 393.644 349.669 393.72 351.842C393.796 354.015 392.1 355.837 389.933 355.913C387.765 355.989 385.946 354.289 385.87 352.116C385.794 349.943 387.49 348.12 389.658 348.045ZM393.127 357.376C395.233 357.302 397.009 358.905 397.178 360.989L397.189 361.173L397.244 362.748C397.255 363.161 396.945 363.512 396.535 363.552C396.125 363.592 395.753 363.307 395.684 362.9L395.674 362.802L395.62 361.228C395.576 359.975 394.566 358.984 393.331 358.95L393.182 358.95L386.903 359.169C385.66 359.212 384.665 360.216 384.629 361.462L384.63 361.612L384.685 363.186C384.696 363.599 384.386 363.95 383.976 363.99C383.566 364.03 383.194 363.746 383.125 363.338L383.115 363.24L383.061 361.667C382.987 359.556 384.585 357.776 386.663 357.606L386.847 357.595L386.848 357.595L393.127 357.376ZM387.676 350.858C388.081 350.106 388.86 349.632 389.713 349.619L389.713 349.618C391.013 349.573 392.105 350.593 392.15 351.897C392.196 353.2 391.178 354.294 389.878 354.34C389.026 354.386 388.216 353.967 387.759 353.245C387.303 352.523 387.271 351.61 387.676 350.858Z" fill="#6D4BFF"/>
<path d="M366.053 408.45C374.961 405.727 379.969 396.28 377.239 387.351C374.509 378.422 365.075 373.391 356.167 376.115C347.259 378.838 342.251 388.284 344.981 397.214C347.711 406.143 357.145 411.174 366.053 408.45Z" fill="white"/>
<path fill-rule="evenodd" clip-rule="evenodd" d="M360.215 384.085C362.383 384.009 364.202 385.709 364.278 387.882C364.353 390.055 362.658 391.877 360.49 391.953C358.322 392.029 356.504 390.329 356.428 388.156C356.352 385.983 358.048 384.16 360.215 384.085ZM363.685 393.416C365.79 393.343 367.567 394.945 367.736 397.029L367.747 397.213L367.802 398.788C367.812 399.201 367.503 399.552 367.092 399.592C366.682 399.632 366.311 399.347 366.242 398.94L366.232 398.842L366.177 397.268C366.133 396.015 365.124 395.024 363.889 394.99L363.74 394.99L357.46 395.209C356.218 395.252 355.222 396.256 355.187 397.502L355.188 397.652L355.243 399.226C355.253 399.639 354.944 399.99 354.534 400.03C354.123 400.07 353.752 399.786 353.683 399.378L353.673 399.28L353.618 397.707C353.544 395.596 355.143 393.816 357.221 393.646L357.405 393.635L357.406 393.635L363.685 393.416ZM358.234 386.898C358.639 386.146 359.418 385.672 360.27 385.659L360.27 385.658C361.571 385.613 362.662 386.633 362.708 387.937C362.753 389.24 361.736 390.334 360.435 390.38C359.584 390.426 358.774 390.007 358.317 389.285C357.86 388.563 357.829 387.65 358.234 386.898Z" fill="#6D4BFF"/>
<path d="M109.08 53.8881L129.318 109.619C72.2848 150.504 45.1444 223.946 64.7253 293.775L10.5359 313.544C-19.278 214.53 21.6688 109.252 106.497 55.5013L109.081 53.8881H109.08Z" fill="url(#paint1_radial_0_370)"/>
<path d="M95.051 119.013C104.366 119.013 111.917 111.443 111.917 102.106C111.917 92.769 104.366 85.1997 95.051 85.1997C85.7361 85.1997 78.1848 92.769 78.1848 102.106C78.1848 111.443 85.7361 119.013 95.051 119.013Z" fill="white"/>
<path fill-rule="evenodd" clip-rule="evenodd" d="M94.5549 93.7366C96.7239 93.7366 98.4822 95.4991 98.4822 97.6732C98.4822 99.8473 96.7239 101.61 94.5549 101.61C92.386 101.61 90.6277 99.8473 90.6277 97.6732C90.6277 95.4991 92.386 93.7366 94.5549 93.7366ZM97.6964 103.183C99.7868 103.183 101.511 104.825 101.618 106.918L101.624 107.12V108.695C101.618 109.105 101.299 109.442 100.891 109.47C100.483 109.498 100.122 109.207 100.061 108.801L100.053 108.695V107.12C100.053 105.879 99.0936 104.849 97.8579 104.764L97.6964 104.758H91.4135C90.1746 104.758 89.1472 105.719 89.0622 106.958L89.057 107.12V108.695C89.054 109.108 88.7344 109.448 88.324 109.476C87.9136 109.503 87.5514 109.209 87.4933 108.801L87.4863 108.695V107.12C87.4863 105.025 89.1233 103.297 91.2107 103.189L91.4126 103.183H91.4135H97.6964ZM92.4763 96.4794C92.9074 95.7419 93.7023 95.2954 94.5549 95.3119V95.311C95.8564 95.311 96.9115 96.3686 96.9115 97.6732C96.9115 98.9778 95.8564 100.035 94.5549 100.035C93.7023 100.052 92.9074 99.6053 92.4763 98.8678C92.0452 98.1303 92.0452 97.2169 92.4763 96.4794Z" fill="#6D4BFF"/>
<path d="M66.2793 151.831C75.5942 151.831 83.1455 144.262 83.1455 134.925C83.1455 125.587 75.5942 118.018 66.2793 118.018C56.9644 118.018 49.4132 125.587 49.4132 134.925C49.4132 144.262 56.9644 151.831 66.2793 151.831Z" fill="white"/>
<path fill-rule="evenodd" clip-rule="evenodd" d="M65.7833 126.555C67.9522 126.555 69.7105 128.317 69.7105 130.492C69.7105 132.666 67.9522 134.428 65.7833 134.428C63.6143 134.428 61.856 132.666 61.856 130.492C61.856 128.317 63.6143 126.555 65.7833 126.555ZM68.9247 136.002C71.0319 136.002 72.751 137.665 72.8476 139.754L72.8519 139.938V141.514C72.8482 141.927 72.5265 142.267 72.115 142.293C71.7036 142.318 71.3422 142.021 71.2874 141.611L71.2812 141.513V139.938C71.2812 138.684 70.3067 137.659 69.074 137.582L68.9247 137.576H62.6418C61.3982 137.576 60.3685 138.545 60.2897 139.789L60.2853 139.938V141.514C60.2816 141.927 59.9599 142.267 59.5484 142.293C59.1369 142.318 58.7756 142.021 58.7207 141.611L58.7146 141.513V139.938C58.7146 137.826 60.374 136.103 62.4566 136.006L62.6409 136.002H62.6418H68.9247ZM63.7046 129.298C64.1357 128.56 64.9307 128.114 65.7833 128.13V128.129C67.0847 128.129 68.1398 129.187 68.1398 130.492C68.1398 131.796 67.0847 132.854 65.7833 132.854C64.9307 132.87 64.1357 132.424 63.7046 131.686C63.2735 130.949 63.2735 130.035 63.7046 129.298Z" fill="#6D4BFF"/>
<path d="M46.4368 191.611C55.7517 191.611 63.303 184.042 63.303 174.704C63.303 165.367 55.7517 157.798 46.4368 157.798C37.1219 157.798 29.5706 165.367 29.5706 174.704C29.5706 184.042 37.1219 191.611 46.4368 191.611Z" fill="white"/>
<path fill-rule="evenodd" clip-rule="evenodd" d="M45.9407 166.335C48.1097 166.335 49.868 168.097 49.868 170.271C49.868 172.445 48.1097 174.208 45.9407 174.208C43.7718 174.208 42.0135 172.445 42.0135 170.271C42.0135 168.097 43.7718 166.335 45.9407 166.335ZM49.0822 175.782C51.1894 175.782 52.9085 177.445 53.005 179.533L53.0094 179.718V181.294C53.0057 181.707 52.684 182.047 52.2725 182.073C51.861 182.098 51.4997 181.801 51.4448 181.391L51.4387 181.293V179.718C51.4387 178.464 50.4641 177.439 49.2314 177.361L49.0822 177.356H42.7993C41.5556 177.356 40.5259 178.324 40.4472 179.569L40.4428 179.718V181.294C40.439 181.707 40.1173 182.047 39.7059 182.073C39.2944 182.098 38.9331 181.801 38.8782 181.391L38.8721 181.293V179.718C38.8721 177.606 40.5315 175.883 42.614 175.786L42.7984 175.782H42.7993H49.0822ZM43.8621 169.078C44.2932 168.34 45.0881 167.894 45.9407 167.91V167.909C47.2422 167.909 48.2973 168.967 48.2973 170.271C48.2973 171.576 47.2422 172.633 45.9407 172.633C45.0881 172.65 44.2932 172.203 43.8621 171.466C43.431 170.728 43.431 169.815 43.8621 169.078Z" fill="#6D4BFF"/>
<path d="M33.5392 236.363C42.8541 236.363 50.4053 228.794 50.4053 219.457C50.4053 210.12 42.8541 202.55 33.5392 202.55C24.2242 202.55 16.673 210.12 16.673 219.457C16.673 228.794 24.2242 236.363 33.5392 236.363Z" fill="white"/>
<path fill-rule="evenodd" clip-rule="evenodd" d="M33.0431 211.087C35.212 211.087 36.9703 212.85 36.9703 215.024C36.9703 217.198 35.212 218.96 33.0431 218.96C30.8741 218.96 29.1159 217.198 29.1159 215.024C29.1159 212.85 30.8741 211.087 33.0431 211.087ZM36.1845 220.534C38.2917 220.534 40.0108 222.197 40.1074 224.286L40.1118 224.471V226.046C40.108 226.459 39.7863 226.799 39.3749 226.825C38.9634 226.851 38.6021 226.553 38.5472 226.144L38.5411 226.045V224.471C38.5411 223.216 37.5665 222.191 36.3338 222.114L36.1845 222.108H29.9017C28.658 222.108 27.6283 223.077 27.5495 224.321L27.5451 224.471V226.046C27.5414 226.459 27.2197 226.799 26.8082 226.825C26.3967 226.851 26.0354 226.553 25.9806 226.144L25.9744 226.045V224.471C25.9744 222.358 27.6338 220.635 29.7164 220.538L29.9008 220.534H29.9017H36.1845ZM30.9644 213.83C31.3955 213.093 32.1905 212.646 33.0431 212.663V212.662C34.3446 212.662 35.3996 213.719 35.3996 215.024C35.3996 216.328 34.3446 217.386 33.0431 217.386C32.1905 217.402 31.3955 216.956 30.9644 216.218C30.5333 215.481 30.5333 214.568 30.9644 213.83Z" fill="#6D4BFF"/>
<path d="M31.5549 283.105C40.8698 283.105 48.4211 275.535 48.4211 266.198C48.4211 256.861 40.8698 249.292 31.5549 249.292C22.24 249.292 14.6888 256.861 14.6888 266.198C14.6888 275.535 22.24 283.105 31.5549 283.105Z" fill="white"/>
<path fill-rule="evenodd" clip-rule="evenodd" d="M31.0588 257.828C33.2278 257.828 34.9861 259.591 34.9861 261.765C34.9861 263.939 33.2278 265.702 31.0588 265.702C28.8899 265.702 27.1316 263.939 27.1316 261.765C27.1316 259.591 28.8899 257.828 31.0588 257.828ZM34.2003 267.275C36.3075 267.275 38.0266 268.939 38.1231 271.027L38.1275 271.212V272.787C38.1238 273.201 37.8021 273.541 37.3906 273.566C36.9791 273.592 36.6178 273.295 36.5629 272.885L36.5568 272.786V271.212C36.5568 269.958 35.5822 268.933 34.3495 268.855L34.2003 268.85H27.9174C26.6737 268.85 25.644 269.818 25.5653 271.062L25.5609 271.212V272.787C25.5571 273.201 25.2354 273.541 24.824 273.566C24.4125 273.592 24.0512 273.295 23.9963 272.885L23.9902 272.786V271.212C23.9902 269.1 25.6496 267.377 27.7321 267.28L27.9165 267.275H27.9174H34.2003ZM28.9802 260.571C29.4113 259.834 30.2063 259.387 31.0588 259.404V259.403C32.3603 259.403 33.4154 260.461 33.4154 261.765C33.4154 263.07 32.3603 264.127 31.0588 264.127C30.2063 264.144 29.4113 263.697 28.9802 262.96C28.5491 262.222 28.5491 261.309 28.9802 260.571Z" fill="#6D4BFF"/>
<rect x="184" y="203" width="86.6581" height="86.6581" rx="7.684" fill="url(#paint2_linear_0_370)" fill-opacity="0.23"/>
<mask id="mask0_0_370" style="mask-type:alpha" maskUnits="userSpaceOnUse" x="196" y="215" width="63" height="63">
<path fill-rule="evenodd" clip-rule="evenodd" d="M201.735 215C198.569 215 196 217.567 196 220.736V272.265C196 275.431 198.569 278 201.735 278H253.264C256.433 278 259 275.431 259 272.265V220.736C259 217.567 256.433 215 253.264 215H201.735Z" fill="white"/>
</mask>
<g mask="url(#mask0_0_370)">
<path d="M201.735 215C198.569 215 196 217.567 196 220.736V272.265C196 275.431 198.569 278 201.735 278H253.264C256.433 278 259 275.431 259 272.265V220.736C259 217.567 256.433 215 253.264 215H201.735Z" fill="url(#paint3_linear_0_370)"/>
</g>
<path d="M213 254C216.313 254 219 256.685 219 260C219 263.313 216.313 266 213 266C209.687 266 207 263.313 207 260C207 256.685 209.687 254 213 254Z" fill="#0056D7"/>
<path d="M218 261H238V258H218V261Z" fill="url(#paint4_linear_0_370)"/>
<path d="M207.254 256.235C209.3 252.445 213.945 251.077 217.63 253.181C221.315 255.285 222.645 260.062 220.599 263.853C218.554 267.643 213.909 269.011 210.224 266.907C206.539 264.803 205.209 260.025 207.254 256.235Z" fill="white"/>
<path d="M222.757 231.547C224.293 228.703 227.779 227.677 230.544 229.255C233.31 230.834 234.309 234.419 232.774 237.264C231.238 240.109 227.752 241.136 224.986 239.557C222.221 237.978 221.222 234.392 222.757 231.547Z" fill="#0258D9"/>
<mask id="mask1_0_370" style="mask-type:alpha" maskUnits="userSpaceOnUse" x="213" y="236" width="14" height="20">
<path fill-rule="evenodd" clip-rule="evenodd" d="M213.901 254.212L216.577 255.647L226.975 237.535L224.299 236.1L213.901 254.212Z" fill="white"/>
</mask>
<g mask="url(#mask1_0_370)">
<path d="M213.901 254.212L216.577 255.647L226.975 237.535L224.299 236.1L213.901 254.212Z" fill="url(#paint5_linear_0_370)"/>
</g>
<path d="M224.119 226.006C227.981 223.862 232.85 225.256 234.994 229.119C237.138 232.981 235.744 237.85 231.881 239.994C228.019 242.138 223.15 240.744 221.006 236.881C218.862 233.019 220.256 228.15 224.119 226.006Z" fill="white"/>
<mask id="mask2_0_370" style="mask-type:alpha" maskUnits="userSpaceOnUse" x="227" y="236" width="15" height="20">
<path fill-rule="evenodd" clip-rule="evenodd" d="M227.999 237.514L238.398 255.628L241.072 254.193L230.674 236.079L227.999 237.514Z" fill="white"/>
</mask>
<g mask="url(#mask2_0_370)">
<path d="M227.999 237.514L238.398 255.628L241.072 254.193L230.674 236.079L227.999 237.514Z" fill="url(#paint6_linear_0_370)"/>
</g>
<path d="M239.023 254.866C241.868 253.287 245.454 254.314 247.033 257.159C248.612 260.004 247.585 263.589 244.74 265.168C241.895 266.748 238.31 265.72 236.73 262.876C235.153 260.031 236.178 256.445 239.023 254.866Z" fill="#0258D9"/>
<path d="M241.846 252.168C246.181 252.168 249.696 255.682 249.696 260.018C249.696 264.352 246.181 267.867 241.846 267.867C237.512 267.867 233.997 264.352 233.997 260.018C233.997 255.682 237.512 252.168 241.846 252.168Z" fill="white"/>
<path fill-rule="evenodd" clip-rule="evenodd" d="M492.612 160.539C492.612 182.928 474.269 201.077 451.642 201.077C429.015 201.077 410.673 182.928 410.673 160.539C410.673 138.15 429.015 120 451.642 120C474.269 120 492.612 138.15 492.612 160.539ZM485.876 160C485.876 178.778 470.654 194 451.876 194C433.098 194 417.876 178.778 417.876 160C417.876 141.222 433.098 126 451.876 126C470.654 126 485.876 141.222 485.876 160Z" fill="#09D0BD"/>
<path d="M451.642 192.179C469.302 192.179 483.618 178.013 483.618 160.539C483.618 143.065 469.302 128.899 451.642 128.899C433.982 128.899 419.666 143.065 419.666 160.539C419.666 178.013 433.982 192.179 451.642 192.179Z" fill="white"/>
<path opacity="0.5" d="M421.487 186.356L386.115 217.883" stroke="#09D0BD" stroke-opacity="0.66" stroke-width="2.26"/>
<path d="M431.295 148.157L447.189 162.247C447.573 162.588 448.427 162.588 448.811 162.247L464.705 148.157H431.295Z" fill="#09D0BD"/>
<path d="M430 149.296V169.855C430 170.336 430.373 170.723 430.837 170.723H465.163C465.627 170.723 466 170.336 466 169.855V149.296L449.897 163.563C448.811 164.525 447.189 164.525 446.103 163.563L430 149.296Z" fill="#09D0BD"/>
<path fill-rule="evenodd" clip-rule="evenodd" d="M466.5 177C471.194 177 475 173.194 475 168.5C475 163.806 471.194 160 466.5 160C461.806 160 458 163.806 458 168.5C458 173.194 461.806 177 466.5 177Z" fill="white"/>
<path fill-rule="evenodd" clip-rule="evenodd" d="M467 176C470.866 176 474 172.866 474 169C474 165.134 470.866 162 467 162C463.134 162 460 165.134 460 169C460 172.866 463.134 176 467 176ZM466.679 173.963C466.264 173.869 466 173.57 466 173.252V173.009C466 173.009 466 173 466.013 173H468V173.262C467.987 173.748 467.358 174.122 466.679 173.963ZM469.539 172H463.47C463.208 172 463 171.792 463 171.53V171.449C463 171.323 463.045 171.205 463.135 171.115L463.768 170.501V168.505C463.768 167.295 464.526 166.275 465.664 165.913C465.673 165.913 465.673 165.904 465.673 165.895V165.823C465.673 165.552 465.8 165.29 466.026 165.146C466.64 164.748 467.317 165.227 467.317 165.823V165.895C468.464 166.256 469.232 167.277 469.232 168.496V170.501L469.864 171.124C469.955 171.214 470 171.332 470 171.458V171.539C470.009 171.792 469.801 172 469.539 172Z" fill="#09D0BD"/>
<path d="M198.752 66.6874C211.597 55.5362 212.958 36.0971 201.792 23.2691C190.627 10.4411 171.163 9.08175 158.318 20.233C145.474 31.3842 144.113 50.8233 155.278 63.6513C166.444 76.4793 185.908 77.8387 198.752 66.6874Z" fill="white"/>
<path fill-rule="evenodd" clip-rule="evenodd" d="M219.612 45.5387C219.612 67.9277 201.269 86.0775 178.642 86.0775C156.015 86.0775 137.673 67.9277 137.673 45.5387C137.673 23.1498 156.015 5 178.642 5C201.269 5 219.612 23.1498 219.612 45.5387ZM212.876 45C212.876 63.7777 197.654 79 178.876 79C160.098 79 144.876 63.7777 144.876 45C144.876 26.2223 160.098 11 178.876 11C197.654 11 212.876 26.2223 212.876 45Z" fill="#09D0BD"/>
<path d="M158.295 33.1572L174.189 47.2475C174.573 47.5876 175.427 47.5876 175.811 47.2475L191.705 33.1572H158.295Z" fill="#09D0BD"/>
<path d="M157 34.2963V54.8552C157 55.3361 157.373 55.7232 157.837 55.7232H192.163C192.627 55.7232 193 55.3361 193 54.8552V34.2963L176.897 48.5628C175.811 49.5249 174.189 49.5249 173.103 48.5628L157 34.2963Z" fill="#09D0BD"/>
<path fill-rule="evenodd" clip-rule="evenodd" d="M193.5 62C198.194 62 202 58.1944 202 53.5C202 48.8056 198.194 45 193.5 45C188.806 45 185 48.8056 185 53.5C185 58.1944 188.806 62 193.5 62Z" fill="white"/>
<path fill-rule="evenodd" clip-rule="evenodd" d="M194 61C197.866 61 201 57.866 201 54C201 50.134 197.866 47 194 47C190.134 47 187 50.134 187 54C187 57.866 190.134 61 194 61ZM193.679 58.9629C193.264 58.8694 193 58.5703 193 58.2524V58.0093C193 58.0093 193 58 193.013 58H195V58.2618C194.987 58.7479 194.358 59.1218 193.679 58.9629ZM196.539 57H190.47C190.208 57 190 56.7923 190 56.5304V56.4491C190 56.3227 190.045 56.2053 190.135 56.115L190.768 55.5009V53.5051C190.768 52.295 191.526 51.2745 192.664 50.9133C192.673 50.9133 192.673 50.9043 192.673 50.8952V50.823C192.673 50.5521 192.8 50.2902 193.026 50.1457C193.64 49.7483 194.317 50.2269 194.317 50.823V50.8952C195.464 51.2565 196.232 52.2769 196.232 53.4961V55.5009L196.864 56.124C196.955 56.2143 197 56.3317 197 56.4582V56.5394C197.009 56.7923 196.801 57 196.539 57Z" fill="#09D0BD"/>
<path opacity="0.5" d="M163.954 82.5109L150.303 107.469" stroke="#09D0BD" stroke-width="2.26"/>
<path d="M105.587 445.904C119.221 445.904 130.274 434.837 130.274 421.186C130.274 407.534 119.221 396.467 105.587 396.467C91.9525 396.467 80.8998 407.534 80.8998 421.186C80.8998 434.837 91.9525 445.904 105.587 445.904Z" fill="white"/>
<path opacity="0.5" d="M169.773 357.114L126.324 402.596" stroke="#09D0BD" stroke-width="2.26"/>
<path fill-rule="evenodd" clip-rule="evenodd" d="M140.124 423C140.124 441.225 125.125 456 106.624 456C88.1224 456 73.124 441.225 73.124 423C73.124 404.775 88.1224 390 106.624 390C125.125 390 140.124 404.775 140.124 423ZM134.616 422.561C134.616 437.847 122.169 450.239 106.815 450.239C91.4609 450.239 79.0139 437.847 79.0139 422.561C79.0139 407.276 91.4609 394.884 106.815 394.884C122.169 394.884 134.616 407.276 134.616 422.561Z" fill="#09D0BD"/>
<path d="M89.2032 413.13L102.448 424.77C102.768 425.051 103.48 425.051 103.8 424.77L117.045 413.13H89.2032Z" fill="#09D0BD"/>
<path d="M88.124 414.071V431.054C88.124 431.452 88.4351 431.771 88.8216 431.771H117.426C117.813 431.771 118.124 431.452 118.124 431.054V414.071L104.705 425.856C103.8 426.651 102.448 426.651 101.543 425.856L88.124 414.071Z" fill="#09D0BD"/>
<path fill-rule="evenodd" clip-rule="evenodd" d="M118.124 437C121.99 437 125.124 433.866 125.124 430C125.124 426.134 121.99 423 118.124 423C114.258 423 111.124 426.134 111.124 430C111.124 433.866 114.258 437 118.124 437Z" fill="white"/>
<path fill-rule="evenodd" clip-rule="evenodd" d="M118.124 436C121.438 436 124.124 433.314 124.124 430C124.124 426.686 121.438 424 118.124 424C114.81 424 112.124 426.686 112.124 430C112.124 433.314 114.81 436 118.124 436ZM117.849 434.254C117.493 434.174 117.267 433.917 117.267 433.645V433.437C117.267 433.437 117.267 433.429 117.278 433.429H118.981V433.653C118.97 434.07 118.431 434.39 117.849 434.254ZM120.3 432.571H115.098C114.873 432.571 114.695 432.393 114.695 432.169V432.099C114.695 431.991 114.734 431.89 114.812 431.813L115.353 431.286V429.576C115.353 428.539 116.004 427.664 116.979 427.354C116.987 427.354 116.987 427.347 116.987 427.339V427.277C116.987 427.045 117.095 426.82 117.289 426.696C117.815 426.356 118.396 426.766 118.396 427.277V427.339C119.379 427.648 120.037 428.523 120.037 429.568V431.286L120.579 431.821C120.656 431.898 120.695 431.999 120.695 432.107V432.177C120.703 432.393 120.525 432.571 120.3 432.571Z" fill="#09D0BD"/>
<path opacity="0.7" d="M125.816 342.168L170.102 356.097L187.206 393.457L228.35 379.917L263.768 401.093L289.987 377.201" stroke="#09D0BD"/>
<path opacity="0.6" d="M85.7202 291.038L97.8804 251.263L80.0375 221.154L107.341 192.423L103.842 158.778L140.022 151.7" stroke="#09D0BD"/>
<path opacity="0.3" d="M147.692 113.915L102.174 156.911L78.3332 222.357L83.7204 296.004" stroke="#09D0BD"/>
<path d="M149.434 119.614C152.579 118.652 154.348 115.322 153.386 112.174C152.424 109.027 149.094 107.255 145.95 108.217C142.805 109.178 141.035 112.509 141.997 115.656C142.96 118.804 146.289 120.575 149.434 119.614Z" fill="white" stroke="#09D0BD" stroke-opacity="0.4"/>
<path d="M103.758 163.696C106.903 162.735 108.672 159.404 107.71 156.257C106.748 153.109 103.418 151.337 100.273 152.299C97.1283 153.26 95.3589 156.591 96.3211 159.738C97.2833 162.886 100.613 164.658 103.758 163.696Z" fill="white" stroke="#09D0BD" stroke-opacity="0.4"/>
<path d="M80.2355 225.93C83.3804 224.968 85.1499 221.638 84.1877 218.49C83.2255 215.343 79.896 213.571 76.751 214.533C73.6061 215.494 71.8366 218.825 72.7988 221.972C73.7611 225.12 77.0906 226.891 80.2355 225.93Z" fill="white" stroke="#09D0BD" stroke-opacity="0.4"/>
<path opacity="0.484" d="M84.4839 293.689L120.251 312.89L126.129 342.492" stroke="#09D0BD"/>
<path d="M85.9571 298.955C89.102 297.994 90.8715 294.663 89.9093 291.516C88.9471 288.368 85.6176 286.597 82.4726 287.558C79.3277 288.52 77.5582 291.85 78.5204 294.998C79.4826 298.145 82.8121 299.917 85.9571 298.955Z" fill="white" stroke="#09D0BD" stroke-opacity="0.4"/>
<path d="M121.993 318.589C125.138 317.627 126.907 314.296 125.945 311.149C124.983 308.002 121.653 306.23 118.508 307.191C115.363 308.153 113.594 311.484 114.556 314.631C115.518 317.778 118.848 319.55 121.993 318.589Z" fill="white" stroke="#09D0BD" stroke-opacity="0.4"/>
<path d="M127.685 348.27C130.83 347.308 132.599 343.978 131.637 340.83C130.675 337.683 127.345 335.911 124.2 336.873C121.055 337.834 119.286 341.165 120.248 344.312C121.21 347.46 124.54 349.231 127.685 348.27Z" fill="white" stroke="#09D0BD" stroke-opacity="0.4"/>
<path d="M189.928 398.024C193.073 397.062 194.842 393.731 193.88 390.584C192.918 387.437 189.588 385.665 186.443 386.626C183.298 387.588 181.529 390.919 182.491 394.066C183.453 397.213 186.783 398.985 189.928 398.024Z" fill="white" stroke="#09D0BD" stroke-opacity="0.4"/>
<path d="M266.359 408.369C269.504 407.408 271.273 404.077 270.311 400.93C269.349 397.782 266.019 396.01 262.874 396.972C259.73 397.933 257.96 401.264 258.922 404.411C259.884 407.559 263.214 409.331 266.359 408.369Z" fill="white" stroke="#09D0BD" stroke-opacity="0.4"/>
<path d="M229.762 385.01C232.907 384.048 234.676 380.717 233.714 377.57C232.752 374.423 229.422 372.651 226.277 373.613C223.132 374.574 221.363 377.905 222.325 381.052C223.287 384.199 226.617 385.971 229.762 385.01Z" fill="white" stroke="#09D0BD" stroke-opacity="0.4"/>
<path d="M172.668 360.916C175.813 359.955 177.583 356.624 176.621 353.477C175.658 350.329 172.329 348.557 169.184 349.519C166.039 350.48 164.27 353.811 165.232 356.958C166.194 360.106 169.523 361.878 172.668 360.916Z" fill="white" stroke="#09D0BD" stroke-opacity="0.4"/>
<path d="M100.011 257.128C103.156 256.166 104.925 252.836 103.963 249.688C103.001 246.541 99.6714 244.769 96.5265 245.731C93.3816 246.692 91.6121 250.023 92.5743 253.17C93.5365 256.317 96.866 258.089 100.011 257.128Z" fill="white" stroke="#09D0BD" stroke-opacity="0.4"/>
<path d="M109.411 199.02C112.555 198.058 114.325 194.727 113.363 191.58C112.401 188.433 109.071 186.661 105.926 187.623C102.781 188.584 101.012 191.915 101.974 195.062C102.936 198.209 106.266 199.981 109.411 199.02Z" fill="white" stroke="#09D0BD" stroke-opacity="0.4"/>
<path d="M142.312 156.845C145.457 155.884 147.226 152.553 146.264 149.406C145.302 146.258 141.973 144.487 138.828 145.448C135.683 146.41 133.913 149.74 134.875 152.888C135.838 156.035 139.167 157.807 142.312 156.845Z" fill="white" stroke="#09D0BD" stroke-opacity="0.4"/>
<path opacity="0.7" d="M227.557 101.885L261.061 120.558L299.991 118.448L323.495 148.592L367.313 180.196L381.094 220.85L357.909 256.194L366.298 287.838L339.507 319.649" stroke="#09D0BD" stroke-opacity="0.3"/>
<path d="M263.846 125.586C267.084 125.015 269.246 121.925 268.675 118.684C268.103 115.443 265.015 113.278 261.776 113.849C258.537 114.42 256.375 117.511 256.947 120.752C257.518 123.993 260.607 126.157 263.846 125.586Z" fill="white" stroke="#09D0BD" stroke-opacity="0.3"/>
<path d="M228.675 107.89C231.914 107.319 234.076 104.229 233.505 100.988C232.933 97.7469 229.845 95.5824 226.606 96.1535C223.367 96.7246 221.205 99.8149 221.777 103.056C222.348 106.297 225.437 108.461 228.675 107.89Z" fill="white" stroke="#09D0BD" stroke-opacity="0.3"/>
<path opacity="0.7" d="M301.18 120.109L346.203 136.384L367.512 186.089" stroke="#09D0BD" stroke-opacity="0.3"/>
<path d="M304.052 125.606C307.291 125.035 309.453 121.945 308.881 118.704C308.31 115.463 305.221 113.298 301.982 113.869C298.744 114.44 296.581 117.531 297.153 120.772C297.724 124.013 300.813 126.177 304.052 125.606Z" fill="white" stroke="#09D0BD" stroke-opacity="0.3"/>
<path d="M323.132 153.506C326.371 152.935 328.533 149.845 327.962 146.604C327.39 143.363 324.302 141.198 321.063 141.769C317.824 142.341 315.662 145.431 316.234 148.672C316.805 151.913 319.894 154.077 323.132 153.506Z" fill="white" stroke="#09D0BD" stroke-opacity="0.3"/>
<path d="M347.775 142.477C351.014 141.906 353.176 138.815 352.605 135.574C352.033 132.333 348.944 130.169 345.706 130.74C342.467 131.311 340.305 134.401 340.876 137.642C341.448 140.883 344.536 143.048 347.775 142.477Z" fill="white" stroke="#09D0BD" stroke-opacity="0.3"/>
<path d="M367.101 185.087C370.339 184.516 372.501 181.425 371.93 178.184C371.358 174.943 368.27 172.779 365.031 173.35C361.792 173.921 359.63 177.011 360.202 180.252C360.773 183.493 363.862 185.658 367.101 185.087Z" fill="white" stroke="#09D0BD" stroke-opacity="0.3"/>
<path d="M382.153 227.532C385.391 226.961 387.554 223.871 386.982 220.63C386.411 217.389 383.322 215.224 380.083 215.795C376.844 216.366 374.682 219.457 375.254 222.698C375.825 225.939 378.914 228.103 382.153 227.532Z" fill="white" stroke="#09D0BD" stroke-opacity="0.3"/>
<path d="M358.086 260.293C361.324 259.721 363.487 256.631 362.915 253.39C362.344 250.149 359.255 247.985 356.016 248.556C352.777 249.127 350.615 252.217 351.187 255.458C351.758 258.699 354.847 260.864 358.086 260.293Z" fill="white" stroke="#09D0BD" stroke-opacity="0.3"/>
<path d="M368.14 293.516C371.378 292.944 373.541 289.854 372.969 286.613C372.398 283.372 369.309 281.208 366.07 281.779C362.832 282.35 360.669 285.44 361.241 288.681C361.812 291.922 364.901 294.087 368.14 293.516Z" fill="white" stroke="#09D0BD" stroke-opacity="0.3"/>
<path d="M339 324C342.314 324 345 321.314 345 318C345 314.686 342.314 312 339 312C335.686 312 333 314.686 333 318C333 321.314 335.686 324 339 324Z" fill="white" stroke="#09D0BD" stroke-opacity="0.4" stroke-width="2.26"/>
<path d="M290 383C293.314 383 296 380.314 296 377C296 373.686 293.314 371 290 371C286.686 371 284 373.686 284 377C284 380.314 286.686 383 290 383Z" fill="white" stroke="#09D0BD" stroke-opacity="0.4" stroke-width="2.26"/>
<defs>
<radialGradient id="paint0_radial_0_370" cx="0" cy="0" r="1" gradientUnits="userSpaceOnUse" gradientTransform="translate(329.152 334.333) rotate(21.1931) scale(126.679 124.04)">
<stop stop-color="#EFEBFF"/>
<stop offset="1" stop-color="white"/>
</radialGradient>
<radialGradient id="paint1_radial_0_370" cx="0" cy="0" r="1" gradientUnits="userSpaceOnUse" gradientTransform="translate(40.0712 154.918) rotate(60.7925) scale(123.773 106.226)">
<stop stop-color="#EFEBFF"/>
<stop offset="1" stop-color="white"/>
</radialGradient>
<linearGradient id="paint2_linear_0_370" x1="227.329" y1="159.671" x2="140.671" y2="246.329" gradientUnits="userSpaceOnUse">
<stop stop-color="#3258D1"/>
<stop offset="1" stop-color="#6D4BFF"/>
</linearGradient>
<linearGradient id="paint3_linear_0_370" x1="266.931" y1="344.324" x2="422.846" y2="219.486" gradientUnits="userSpaceOnUse">
<stop stop-color="#6D4BFF"/>
<stop offset="1" stop-color="#D62196"/>
</linearGradient>
<linearGradient id="paint4_linear_0_370" x1="219.484" y1="260.576" x2="233.844" y2="260.576" gradientUnits="userSpaceOnUse">
<stop stop-color="white" stop-opacity="0.01"/>
<stop offset="1" stop-color="white"/>
</linearGradient>
<linearGradient id="paint5_linear_0_370" x1="226.44" y1="225.995" x2="206.103" y2="232.326" gradientUnits="userSpaceOnUse">
<stop stop-color="white" stop-opacity="0.01"/>
<stop offset="1" stop-color="white"/>
</linearGradient>
<linearGradient id="paint6_linear_0_370" x1="248.821" y1="239.087" x2="228.416" y2="232.532" gradientUnits="userSpaceOnUse">
<stop stop-color="white" stop-opacity="0.01"/>
<stop offset="1" stop-color="white"/>
</linearGradient>
</defs>
</svg>
