<svg width="500" height="511" viewBox="0 0 500 511" fill="none" xmlns="http://www.w3.org/2000/svg">
<path opacity="0.6" d="M22 80L79 8L129.5 78.5H95.0547V126H57V78.5L22 80Z" fill="url(#paint0_linear_0_812)"/>
<path opacity="0.6" d="M428.5 439L371.5 511L321 440.5H355.445V390H393.5V440.5L428.5 439Z" fill="url(#paint1_linear_0_812)"/>
<g filter="url(#filter0_d_0_812)">
<rect x="40" y="122" width="306" height="268" rx="5" fill="white"/>
</g>
<rect y="173" width="114" height="63" fill="url(#paint2_linear_0_812)"/>
<g filter="url(#filter1_d_0_812)">
<rect x="114" y="154" width="307" height="251" rx="5" fill="white"/>
</g>
<rect x="346" y="314" width="131" height="63" fill="url(#paint3_linear_0_812)"/>
<g filter="url(#filter2_d_0_812)">
<rect x="76" y="90" width="293" height="337" rx="5" fill="white"/>
</g>
<g clip-path="url(#clip0_0_812)">
<rect opacity="0.5" x="158" y="189" width="44" height="8" rx="1" fill="#4F5F83"/>
<rect opacity="0.5" x="212" y="210" width="44" height="8" rx="1" fill="#4F5F83"/>
<rect opacity="0.5" x="245" y="230" width="44" height="8" rx="1" fill="#4F5F83"/>
<path d="M100.924 188.456H102.472V195.728H106.468V197H100.924V188.456ZM110.244 197.096C109.628 197.096 109.084 196.968 108.612 196.712C108.148 196.456 107.788 196.092 107.532 195.62C107.284 195.14 107.16 194.58 107.16 193.94C107.16 193.3 107.284 192.744 107.532 192.272C107.788 191.792 108.148 191.424 108.612 191.168C109.084 190.912 109.628 190.784 110.244 190.784C110.852 190.784 111.388 190.912 111.852 191.168C112.316 191.424 112.672 191.792 112.92 192.272C113.176 192.744 113.304 193.3 113.304 193.94C113.304 194.58 113.176 195.14 112.92 195.62C112.672 196.092 112.316 196.456 111.852 196.712C111.388 196.968 110.852 197.096 110.244 197.096ZM110.232 195.92C110.744 195.92 111.132 195.756 111.396 195.428C111.668 195.092 111.804 194.596 111.804 193.94C111.804 193.292 111.668 192.8 111.396 192.464C111.124 192.12 110.74 191.948 110.244 191.948C109.74 191.948 109.352 192.12 109.08 192.464C108.808 192.8 108.672 193.292 108.672 193.94C108.672 194.596 108.804 195.092 109.068 195.428C109.34 195.756 109.728 195.92 110.232 195.92ZM108.192 188.24C108.192 187.88 108.308 187.584 108.54 187.352C108.772 187.12 109.064 187.004 109.416 187.004C109.568 187.004 109.712 187.024 109.848 187.064C109.984 187.104 110.16 187.168 110.376 187.256C110.696 187.384 110.924 187.448 111.06 187.448C111.22 187.448 111.344 187.408 111.432 187.328C111.528 187.248 111.584 187.144 111.6 187.016H112.284C112.284 187.368 112.168 187.664 111.936 187.904C111.704 188.136 111.412 188.252 111.06 188.252C110.908 188.252 110.764 188.232 110.628 188.192C110.492 188.152 110.316 188.088 110.1 188C109.78 187.872 109.552 187.808 109.416 187.808C109.256 187.808 109.128 187.848 109.032 187.928C108.944 188.008 108.892 188.112 108.876 188.24H108.192ZM108.252 190.16L109.788 188.444H110.688L112.224 190.16H111.048L110.244 189.176L109.428 190.16H108.252ZM121.358 190.784C122.806 190.784 123.53 191.616 123.53 193.28V197H122.03V193.352C122.03 192.872 121.938 192.524 121.754 192.308C121.57 192.084 121.286 191.972 120.902 191.972C120.446 191.972 120.078 192.12 119.798 192.416C119.518 192.704 119.378 193.088 119.378 193.568V197H117.89V188.168H119.378V191.816C119.586 191.488 119.862 191.236 120.206 191.06C120.55 190.876 120.934 190.784 121.358 190.784ZM127.869 197.096C127.253 197.096 126.709 196.968 126.237 196.712C125.773 196.456 125.413 196.092 125.157 195.62C124.909 195.14 124.785 194.58 124.785 193.94C124.785 193.3 124.909 192.744 125.157 192.272C125.413 191.792 125.773 191.424 126.237 191.168C126.709 190.912 127.253 190.784 127.869 190.784C128.477 190.784 129.013 190.912 129.477 191.168C129.941 191.424 130.297 191.792 130.545 192.272C130.801 192.744 130.929 193.3 130.929 193.94C130.929 194.58 130.801 195.14 130.545 195.62C130.297 196.092 129.941 196.456 129.477 196.712C129.013 196.968 128.477 197.096 127.869 197.096ZM127.857 195.92C128.369 195.92 128.757 195.756 129.021 195.428C129.293 195.092 129.429 194.596 129.429 193.94C129.429 193.292 129.293 192.8 129.021 192.464C128.749 192.12 128.365 191.948 127.869 191.948C127.365 191.948 126.977 192.12 126.705 192.464C126.433 192.8 126.297 193.292 126.297 193.94C126.297 194.596 126.429 195.092 126.693 195.428C126.965 195.756 127.353 195.92 127.857 195.92ZM129.753 188.876H128.949V188.648C128.949 188.504 128.997 188.396 129.093 188.324C129.189 188.252 129.325 188.18 129.501 188.108C129.669 188.052 129.753 187.996 129.753 187.94C129.753 187.884 129.717 187.84 129.645 187.808C129.573 187.768 129.465 187.748 129.321 187.748C129.129 187.748 128.889 187.796 128.601 187.892L128.385 187.316C128.745 187.172 129.109 187.1 129.477 187.1C129.861 187.1 130.165 187.172 130.389 187.316C130.621 187.452 130.737 187.632 130.737 187.856C130.737 188.008 130.689 188.124 130.593 188.204C130.497 188.276 130.357 188.348 130.173 188.42C130.037 188.468 129.933 188.52 129.861 188.576C129.789 188.624 129.753 188.688 129.753 188.768V188.876ZM125.877 190.16L127.413 188.444H128.313L129.849 190.16H128.673L127.869 189.176L127.053 190.16H125.877ZM135.69 190.784C137.138 190.784 137.862 191.616 137.862 193.28V197H136.362V193.352C136.362 192.872 136.27 192.524 136.086 192.308C135.902 192.084 135.618 191.972 135.234 191.972C134.778 191.972 134.41 192.12 134.13 192.416C133.85 192.704 133.71 193.088 133.71 193.568V197H132.222V192.656C132.222 192.016 132.19 191.444 132.126 190.94H133.53L133.638 191.936C133.846 191.568 134.126 191.284 134.478 191.084C134.838 190.884 135.242 190.784 135.69 190.784ZM145.309 190.94V196.808C145.309 197.752 145.049 198.468 144.529 198.956C144.009 199.444 143.245 199.688 142.237 199.688C141.301 199.688 140.477 199.492 139.765 199.1L140.005 197.96C140.741 198.344 141.473 198.536 142.201 198.536C143.281 198.536 143.821 198 143.821 196.928V195.728C143.637 196.056 143.369 196.324 143.017 196.532C142.665 196.732 142.269 196.832 141.829 196.832C141.301 196.832 140.829 196.708 140.413 196.46C140.005 196.204 139.685 195.848 139.453 195.392C139.229 194.928 139.117 194.4 139.117 193.808C139.117 193.216 139.229 192.692 139.453 192.236C139.685 191.772 140.005 191.416 140.413 191.168C140.829 190.912 141.301 190.784 141.829 190.784C142.277 190.784 142.673 190.88 143.017 191.072C143.369 191.256 143.637 191.516 143.821 191.852V190.94H145.309ZM142.225 195.656C142.721 195.656 143.109 195.492 143.389 195.164C143.677 194.836 143.821 194.384 143.821 193.808C143.821 193.232 143.681 192.78 143.401 192.452C143.121 192.124 142.729 191.96 142.225 191.96C141.729 191.96 141.337 192.124 141.049 192.452C140.769 192.78 140.629 193.232 140.629 193.808C140.629 194.384 140.769 194.836 141.049 195.164C141.337 195.492 141.729 195.656 142.225 195.656ZM148.453 191.072V192.74H146.773V191.072H148.453ZM148.453 195.32V197H146.773V195.32H148.453Z" fill="#253858"/>
<path d="M100.924 209.456H102.472V216.728H106.468V218H100.924V209.456ZM113.292 211.94V218H111.816V217.028C111.632 217.364 111.368 217.628 111.024 217.82C110.68 218.004 110.288 218.096 109.848 218.096C109.32 218.096 108.852 217.968 108.444 217.712C108.036 217.456 107.72 217.092 107.496 216.62C107.272 216.148 107.16 215.6 107.16 214.976C107.16 214.352 107.272 213.8 107.496 213.32C107.728 212.832 108.048 212.456 108.456 212.192C108.864 211.92 109.328 211.784 109.848 211.784C110.288 211.784 110.68 211.88 111.024 212.072C111.368 212.256 111.632 212.516 111.816 212.852V211.94H113.292ZM110.256 216.92C110.752 216.92 111.136 216.748 111.408 216.404C111.68 216.06 111.816 215.576 111.816 214.952C111.816 214.312 111.68 213.82 111.408 213.476C111.136 213.132 110.748 212.96 110.244 212.96C109.748 212.96 109.36 213.14 109.08 213.5C108.808 213.852 108.672 214.344 108.672 214.976C108.672 215.6 108.808 216.08 109.08 216.416C109.36 216.752 109.752 216.92 110.256 216.92ZM110.568 208.172H111.888L112.776 209.876H111.996L110.568 208.172ZM108.396 211.16L109.932 209.444H110.832L112.368 211.16H111.192L110.388 210.176L109.572 211.16H108.396ZM118.393 211.784C119.841 211.784 120.565 212.616 120.565 214.28V218H119.065V214.352C119.065 213.872 118.973 213.524 118.789 213.308C118.605 213.084 118.321 212.972 117.937 212.972C117.481 212.972 117.113 213.12 116.833 213.416C116.553 213.704 116.413 214.088 116.413 214.568V218H114.925V213.656C114.925 213.016 114.893 212.444 114.829 211.94H116.233L116.341 212.936C116.549 212.568 116.829 212.284 117.181 212.084C117.541 211.884 117.945 211.784 118.393 211.784ZM128.197 218.096C127.565 218.096 127.017 217.968 126.553 217.712C126.089 217.456 125.733 217.096 125.485 216.632C125.237 216.16 125.113 215.608 125.113 214.976C125.113 214.344 125.241 213.788 125.497 213.308C125.761 212.828 126.129 212.456 126.601 212.192C127.081 211.92 127.633 211.784 128.257 211.784C128.689 211.784 129.105 211.852 129.505 211.988C129.913 212.124 130.237 212.312 130.477 212.552L130.057 213.608C129.801 213.4 129.529 213.244 129.241 213.14C128.953 213.028 128.669 212.972 128.389 212.972C127.845 212.972 127.421 213.144 127.117 213.488C126.813 213.824 126.661 214.312 126.661 214.952C126.661 215.592 126.809 216.08 127.105 216.416C127.409 216.752 127.837 216.92 128.389 216.92C128.669 216.92 128.953 216.864 129.241 216.752C129.529 216.64 129.801 216.48 130.057 216.272L130.477 217.328C130.221 217.568 129.889 217.756 129.481 217.892C129.073 218.028 128.645 218.096 128.197 218.096ZM137.004 211.94V218H135.54V217.064C135.348 217.4 135.092 217.656 134.772 217.832C134.452 218.008 134.084 218.096 133.668 218.096C132.188 218.096 131.448 217.264 131.448 215.6V211.94H132.936V215.612C132.936 216.052 133.024 216.376 133.2 216.584C133.384 216.792 133.664 216.896 134.04 216.896C134.48 216.896 134.832 216.752 135.096 216.464C135.36 216.176 135.492 215.792 135.492 215.312V211.94H137.004ZM141.38 218.096C140.764 218.096 140.22 217.968 139.748 217.712C139.284 217.456 138.924 217.092 138.668 216.62C138.42 216.14 138.296 215.58 138.296 214.94C138.296 214.3 138.42 213.744 138.668 213.272C138.924 212.792 139.284 212.424 139.748 212.168C140.22 211.912 140.764 211.784 141.38 211.784C141.988 211.784 142.524 211.912 142.988 212.168C143.452 212.424 143.808 212.792 144.056 213.272C144.312 213.744 144.44 214.3 144.44 214.94C144.44 215.58 144.312 216.14 144.056 216.62C143.808 217.092 143.452 217.456 142.988 217.712C142.524 217.968 141.988 218.096 141.38 218.096ZM141.368 216.92C141.88 216.92 142.268 216.756 142.532 216.428C142.804 216.092 142.94 215.596 142.94 214.94C142.94 214.292 142.804 213.8 142.532 213.464C142.26 213.12 141.876 212.948 141.38 212.948C140.876 212.948 140.488 213.12 140.216 213.464C139.944 213.8 139.808 214.292 139.808 214.94C139.808 215.596 139.94 216.092 140.204 216.428C140.476 216.756 140.864 216.92 141.368 216.92ZM142.472 209.876L143.432 208.172H144.752L143.252 209.876H142.472ZM139.388 211.16L140.924 209.444H141.824L143.36 211.16H142.184L141.38 210.176L140.564 211.16H139.388ZM145.734 211.94H147.222V218H145.734V211.94ZM147.306 209.192V210.668H145.638V209.192H147.306ZM156.296 218L153.644 215.204V218H152.156V209.168H153.644V214.616L156.14 211.952H157.952L155.228 214.844L158.168 218H156.296ZM158.765 211.94H160.253V218H158.765V211.94ZM160.337 209.192V210.668H158.669V209.192H160.337ZM167.198 215.048H163.022C163.054 215.696 163.214 216.176 163.502 216.488C163.798 216.792 164.234 216.944 164.81 216.944C165.474 216.944 166.09 216.728 166.658 216.296L167.09 217.328C166.802 217.56 166.446 217.748 166.022 217.892C165.606 218.028 165.182 218.096 164.75 218.096C163.758 218.096 162.978 217.816 162.41 217.256C161.842 216.696 161.558 215.928 161.558 214.952C161.558 214.336 161.682 213.788 161.93 213.308C162.178 212.828 162.526 212.456 162.974 212.192C163.422 211.92 163.93 211.784 164.498 211.784C165.33 211.784 165.986 212.056 166.466 212.6C166.954 213.136 167.198 213.876 167.198 214.82V215.048ZM164.534 212.864C164.134 212.864 163.806 212.984 163.55 213.224C163.302 213.456 163.142 213.796 163.07 214.244H165.89C165.842 213.788 165.702 213.444 165.47 213.212C165.246 212.98 164.934 212.864 164.534 212.864ZM166.382 209.876H165.578V209.648C165.578 209.504 165.626 209.396 165.722 209.324C165.818 209.252 165.954 209.18 166.13 209.108C166.298 209.052 166.382 208.996 166.382 208.94C166.382 208.884 166.346 208.84 166.274 208.808C166.202 208.768 166.094 208.748 165.95 208.748C165.758 208.748 165.518 208.796 165.23 208.892L165.014 208.316C165.374 208.172 165.738 208.1 166.106 208.1C166.49 208.1 166.794 208.172 167.018 208.316C167.25 208.452 167.366 208.632 167.366 208.856C167.366 209.008 167.318 209.124 167.222 209.204C167.126 209.276 166.986 209.348 166.802 209.42C166.666 209.468 166.562 209.52 166.49 209.576C166.418 209.624 166.382 209.688 166.382 209.768V209.876ZM162.506 211.16L164.042 209.444H164.942L166.478 211.16H165.302L164.498 210.176L163.682 211.16H162.506ZM175.62 211.784C176.308 211.784 176.82 211.992 177.156 212.408C177.492 212.816 177.66 213.44 177.66 214.28V218H176.16V214.328C176.16 213.848 176.08 213.504 175.92 213.296C175.768 213.08 175.512 212.972 175.152 212.972C174.736 212.972 174.408 213.12 174.168 213.416C173.936 213.704 173.82 214.104 173.82 214.616V218H172.32V214.328C172.32 213.856 172.236 213.512 172.068 213.296C171.908 213.08 171.652 212.972 171.3 212.972C170.884 212.972 170.556 213.12 170.316 213.416C170.076 213.704 169.956 214.104 169.956 214.616V218H168.468V213.656C168.468 213.016 168.436 212.444 168.372 211.94H169.776L169.884 212.9C170.06 212.54 170.312 212.264 170.64 212.072C170.976 211.88 171.36 211.784 171.792 211.784C172.72 211.784 173.324 212.168 173.604 212.936C173.796 212.576 174.068 212.296 174.42 212.096C174.78 211.888 175.18 211.784 175.62 211.784ZM184.462 213.068V215.78C184.462 216.492 184.794 216.848 185.458 216.848C185.642 216.848 185.842 216.816 186.058 216.752V217.94C185.794 218.036 185.474 218.084 185.098 218.084C184.41 218.084 183.882 217.892 183.514 217.508C183.146 217.124 182.962 216.572 182.962 215.852V213.068H181.798V211.94H182.962V210.464L184.462 209.96V211.94H186.07V213.068H184.462ZM190.365 211.796C190.597 211.796 190.797 211.828 190.965 211.892L190.953 213.26C190.697 213.156 190.433 213.104 190.161 213.104C189.649 213.104 189.257 213.252 188.985 213.548C188.721 213.844 188.589 214.236 188.589 214.724V218H187.101V213.656C187.101 213.016 187.069 212.444 187.005 211.94H188.409L188.529 213.008C188.681 212.616 188.921 212.316 189.249 212.108C189.577 211.9 189.949 211.796 190.365 211.796ZM197.479 211.94V218H196.003V217.028C195.819 217.364 195.555 217.628 195.211 217.82C194.867 218.004 194.475 218.096 194.035 218.096C193.507 218.096 193.039 217.968 192.631 217.712C192.223 217.456 191.907 217.092 191.683 216.62C191.459 216.148 191.347 215.6 191.347 214.976C191.347 214.352 191.459 213.8 191.683 213.32C191.915 212.832 192.235 212.456 192.643 212.192C193.051 211.92 193.515 211.784 194.035 211.784C194.475 211.784 194.867 211.88 195.211 212.072C195.555 212.256 195.819 212.516 196.003 212.852V211.94H197.479ZM194.443 216.92C194.939 216.92 195.323 216.748 195.595 216.404C195.867 216.06 196.003 215.576 196.003 214.952C196.003 214.312 195.867 213.82 195.595 213.476C195.323 213.132 194.935 212.96 194.431 212.96C193.935 212.96 193.547 213.14 193.267 213.5C192.995 213.852 192.859 214.344 192.859 214.976C192.859 215.6 192.995 216.08 193.267 216.416C193.547 216.752 193.939 216.92 194.443 216.92ZM200.637 212.072V213.74H198.957V212.072H200.637ZM200.637 216.32V218H198.957V216.32H200.637Z" fill="#253858"/>
<path d="M100.924 229.456H102.472V236.728H106.468V238H100.924V229.456ZM114.35 230.368V230.776C114.35 231.264 114.222 231.676 113.966 232.012C113.718 232.34 113.374 232.548 112.934 232.636V238H111.47V237.064C111.278 237.4 111.022 237.656 110.702 237.832C110.382 238.008 110.014 238.096 109.598 238.096C108.118 238.096 107.378 237.264 107.378 235.6V231.94H108.866V235.612C108.866 236.052 108.954 236.376 109.13 236.584C109.314 236.792 109.594 236.896 109.97 236.896C110.41 236.896 110.762 236.752 111.026 236.464C111.29 236.176 111.422 235.792 111.422 235.312V231.94H111.854C112.278 231.94 112.582 231.836 112.766 231.628C112.95 231.42 113.042 231.072 113.042 230.584V230.368H114.35ZM120.808 230.776C120.808 231.208 120.704 231.58 120.496 231.892C120.296 232.204 120.012 232.424 119.644 232.552C119.964 232.824 120.204 233.164 120.364 233.572C120.532 233.98 120.616 234.44 120.616 234.952C120.616 235.584 120.488 236.14 120.232 236.62C119.984 237.092 119.628 237.456 119.164 237.712C118.7 237.968 118.164 238.096 117.556 238.096C116.94 238.096 116.396 237.968 115.924 237.712C115.46 237.456 115.1 237.092 114.844 236.62C114.596 236.14 114.472 235.584 114.472 234.952C114.472 234.312 114.596 233.756 114.844 233.284C115.1 232.804 115.456 232.436 115.912 232.18C116.376 231.916 116.912 231.784 117.52 231.784C117.624 231.784 117.848 231.804 118.192 231.844C118.32 231.868 118.42 231.88 118.492 231.88C118.82 231.88 119.072 231.788 119.248 231.604C119.424 231.412 119.512 231.072 119.512 230.584V230.368H120.808V230.776ZM117.544 236.92C118.056 236.92 118.444 236.756 118.708 236.428C118.98 236.092 119.116 235.596 119.116 234.94C119.116 234.292 118.98 233.8 118.708 233.464C118.436 233.12 118.052 232.948 117.556 232.948C117.052 232.948 116.664 233.12 116.392 233.464C116.12 233.8 115.984 234.292 115.984 234.94C115.984 235.596 116.116 236.092 116.38 236.428C116.652 236.756 117.04 236.92 117.544 236.92ZM118.276 238.936V240.34H116.824V238.936H118.276ZM123.783 233.068V235.78C123.783 236.492 124.115 236.848 124.779 236.848C124.963 236.848 125.163 236.816 125.379 236.752V237.94C125.115 238.036 124.795 238.084 124.419 238.084C123.731 238.084 123.203 237.892 122.835 237.508C122.467 237.124 122.283 236.572 122.283 235.852V233.068H121.119V231.94H122.283V230.464L123.783 229.96V231.94H125.391V233.068H123.783ZM133.854 238L131.202 235.204V238H129.714V229.168H131.202V234.616L133.698 231.952H135.51L132.786 234.844L135.726 238H133.854ZM136.324 231.94H137.812V238H136.324V231.94ZM137.896 229.192V230.668H136.228V229.192H137.896ZM144.757 235.048H140.581C140.613 235.696 140.773 236.176 141.061 236.488C141.357 236.792 141.793 236.944 142.369 236.944C143.033 236.944 143.649 236.728 144.217 236.296L144.649 237.328C144.361 237.56 144.005 237.748 143.581 237.892C143.165 238.028 142.741 238.096 142.309 238.096C141.317 238.096 140.537 237.816 139.969 237.256C139.401 236.696 139.117 235.928 139.117 234.952C139.117 234.336 139.241 233.788 139.489 233.308C139.737 232.828 140.085 232.456 140.533 232.192C140.981 231.92 141.489 231.784 142.057 231.784C142.889 231.784 143.545 232.056 144.025 232.6C144.513 233.136 144.757 233.876 144.757 234.82V235.048ZM142.093 232.864C141.693 232.864 141.365 232.984 141.109 233.224C140.861 233.456 140.701 233.796 140.629 234.244H143.449C143.401 233.788 143.261 233.444 143.029 233.212C142.805 232.98 142.493 232.864 142.093 232.864ZM143.941 229.876H143.137V229.648C143.137 229.504 143.185 229.396 143.281 229.324C143.377 229.252 143.513 229.18 143.689 229.108C143.857 229.052 143.941 228.996 143.941 228.94C143.941 228.884 143.905 228.84 143.833 228.808C143.761 228.768 143.653 228.748 143.509 228.748C143.317 228.748 143.077 228.796 142.789 228.892L142.573 228.316C142.933 228.172 143.297 228.1 143.665 228.1C144.049 228.1 144.353 228.172 144.577 228.316C144.809 228.452 144.925 228.632 144.925 228.856C144.925 229.008 144.877 229.124 144.781 229.204C144.685 229.276 144.545 229.348 144.361 229.42C144.225 229.468 144.121 229.52 144.049 229.576C143.977 229.624 143.941 229.688 143.941 229.768V229.876ZM140.065 231.16L141.601 229.444H142.501L144.037 231.16H142.861L142.057 230.176L141.241 231.16H140.065ZM153.179 231.784C153.867 231.784 154.379 231.992 154.715 232.408C155.051 232.816 155.219 233.44 155.219 234.28V238H153.719V234.328C153.719 233.848 153.639 233.504 153.479 233.296C153.327 233.08 153.071 232.972 152.711 232.972C152.295 232.972 151.967 233.12 151.727 233.416C151.495 233.704 151.379 234.104 151.379 234.616V238H149.879V234.328C149.879 233.856 149.795 233.512 149.627 233.296C149.467 233.08 149.211 232.972 148.859 232.972C148.443 232.972 148.115 233.12 147.875 233.416C147.635 233.704 147.515 234.104 147.515 234.616V238H146.027V233.656C146.027 233.016 145.995 232.444 145.931 231.94H147.335L147.443 232.9C147.619 232.54 147.871 232.264 148.199 232.072C148.535 231.88 148.919 231.784 149.351 231.784C150.279 231.784 150.883 232.168 151.163 232.936C151.355 232.576 151.627 232.296 151.979 232.096C152.339 231.888 152.739 231.784 153.179 231.784ZM162.021 233.068V235.78C162.021 236.492 162.353 236.848 163.017 236.848C163.201 236.848 163.401 236.816 163.617 236.752V237.94C163.353 238.036 163.033 238.084 162.657 238.084C161.969 238.084 161.441 237.892 161.073 237.508C160.705 237.124 160.521 236.572 160.521 235.852V233.068H159.357V231.94H160.521V230.464L162.021 229.96V231.94H163.629V233.068H162.021ZM167.924 231.796C168.156 231.796 168.356 231.828 168.524 231.892L168.512 233.26C168.256 233.156 167.992 233.104 167.72 233.104C167.208 233.104 166.816 233.252 166.544 233.548C166.28 233.844 166.148 234.236 166.148 234.724V238H164.66V233.656C164.66 233.016 164.628 232.444 164.564 231.94H165.968L166.088 233.008C166.24 232.616 166.48 232.316 166.808 232.108C167.136 231.9 167.508 231.796 167.924 231.796ZM175.038 231.94V238H173.562V237.028C173.378 237.364 173.114 237.628 172.77 237.82C172.426 238.004 172.034 238.096 171.594 238.096C171.066 238.096 170.598 237.968 170.19 237.712C169.782 237.456 169.466 237.092 169.242 236.62C169.018 236.148 168.906 235.6 168.906 234.976C168.906 234.352 169.018 233.8 169.242 233.32C169.474 232.832 169.794 232.456 170.202 232.192C170.61 231.92 171.074 231.784 171.594 231.784C172.034 231.784 172.426 231.88 172.77 232.072C173.114 232.256 173.378 232.516 173.562 232.852V231.94H175.038ZM172.002 236.92C172.498 236.92 172.882 236.748 173.154 236.404C173.426 236.06 173.562 235.576 173.562 234.952C173.562 234.312 173.426 233.82 173.154 233.476C172.882 233.132 172.494 232.96 171.99 232.96C171.494 232.96 171.106 233.14 170.826 233.5C170.554 233.852 170.418 234.344 170.418 234.976C170.418 235.6 170.554 236.08 170.826 236.416C171.106 236.752 171.498 236.92 172.002 236.92ZM181.872 233.068V235.78C181.872 236.492 182.204 236.848 182.868 236.848C183.052 236.848 183.252 236.816 183.468 236.752V237.94C183.204 238.036 182.884 238.084 182.508 238.084C181.82 238.084 181.292 237.892 180.924 237.508C180.556 237.124 180.372 236.572 180.372 235.852V233.068H179.208V231.94H180.372V230.464L181.872 229.96V231.94H183.48V233.068H181.872ZM184.511 231.94H185.999V238H184.511V231.94ZM186.083 229.192V230.668H184.415V229.192H186.083ZM192.944 235.048H188.768C188.8 235.696 188.96 236.176 189.248 236.488C189.544 236.792 189.98 236.944 190.556 236.944C191.22 236.944 191.836 236.728 192.404 236.296L192.836 237.328C192.548 237.56 192.192 237.748 191.768 237.892C191.352 238.028 190.928 238.096 190.496 238.096C189.504 238.096 188.724 237.816 188.156 237.256C187.588 236.696 187.304 235.928 187.304 234.952C187.304 234.336 187.428 233.788 187.676 233.308C187.924 232.828 188.272 232.456 188.72 232.192C189.168 231.92 189.676 231.784 190.244 231.784C191.076 231.784 191.732 232.056 192.212 232.6C192.7 233.136 192.944 233.876 192.944 234.82V235.048ZM190.28 232.864C189.88 232.864 189.552 232.984 189.296 233.224C189.048 233.456 188.888 233.796 188.816 234.244H191.636C191.588 233.788 191.448 233.444 191.216 233.212C190.992 232.98 190.68 232.864 190.28 232.864ZM191.336 229.876L192.296 228.172H193.616L192.116 229.876H191.336ZM188.252 231.16L189.788 229.444H190.688L192.224 231.16H191.048L190.244 230.176L189.428 231.16H188.252ZM197.67 231.784C198.19 231.784 198.65 231.92 199.05 232.192C199.458 232.456 199.774 232.832 199.998 233.32C200.23 233.8 200.346 234.352 200.346 234.976C200.346 235.6 200.234 236.148 200.01 236.62C199.786 237.092 199.47 237.456 199.062 237.712C198.662 237.968 198.198 238.096 197.67 238.096C197.23 238.096 196.838 238.004 196.494 237.82C196.15 237.628 195.886 237.364 195.702 237.028V240.592H194.214V233.656C194.214 233.016 194.182 232.444 194.118 231.94H195.522L195.642 232.984C195.802 232.608 196.062 232.316 196.422 232.108C196.782 231.892 197.198 231.784 197.67 231.784ZM197.262 236.92C197.766 236.92 198.154 236.752 198.426 236.416C198.698 236.08 198.834 235.6 198.834 234.976C198.834 234.344 198.698 233.852 198.426 233.5C198.154 233.14 197.77 232.96 197.274 232.96C196.762 232.96 196.37 233.132 196.098 233.476C195.826 233.82 195.69 234.312 195.69 234.952C195.69 235.584 195.826 236.072 196.098 236.416C196.37 236.752 196.758 236.92 197.262 236.92ZM206.857 233.068V235.78C206.857 236.492 207.189 236.848 207.853 236.848C208.037 236.848 208.237 236.816 208.453 236.752V237.94C208.189 238.036 207.869 238.084 207.493 238.084C206.805 238.084 206.277 237.892 205.909 237.508C205.541 237.124 205.357 236.572 205.357 235.852V233.068H204.193V231.94H205.357V230.464L206.857 229.96V231.94H208.465V233.068H206.857ZM212.964 231.784C214.412 231.784 215.136 232.616 215.136 234.28V238H213.636V234.352C213.636 233.872 213.544 233.524 213.36 233.308C213.176 233.084 212.892 232.972 212.508 232.972C212.052 232.972 211.684 233.12 211.404 233.416C211.124 233.704 210.984 234.088 210.984 234.568V238H209.496V229.168H210.984V232.816C211.192 232.488 211.468 232.236 211.812 232.06C212.156 231.876 212.54 231.784 212.964 231.784ZM222.03 235.048H217.854C217.886 235.696 218.046 236.176 218.334 236.488C218.63 236.792 219.066 236.944 219.642 236.944C220.306 236.944 220.922 236.728 221.49 236.296L221.922 237.328C221.634 237.56 221.278 237.748 220.854 237.892C220.438 238.028 220.014 238.096 219.582 238.096C218.59 238.096 217.81 237.816 217.242 237.256C216.674 236.696 216.39 235.928 216.39 234.952C216.39 234.336 216.514 233.788 216.762 233.308C217.01 232.828 217.358 232.456 217.806 232.192C218.254 231.92 218.762 231.784 219.33 231.784C220.162 231.784 220.818 232.056 221.298 232.6C221.786 233.136 222.03 233.876 222.03 234.82V235.048ZM219.366 232.864C218.966 232.864 218.638 232.984 218.382 233.224C218.134 233.456 217.974 233.796 217.902 234.244H220.722C220.674 233.788 220.534 233.444 220.302 233.212C220.078 232.98 219.766 232.864 219.366 232.864ZM226.048 238.096C225.432 238.096 224.888 237.968 224.416 237.712C223.952 237.456 223.592 237.092 223.336 236.62C223.088 236.14 222.964 235.58 222.964 234.94C222.964 234.3 223.088 233.744 223.336 233.272C223.592 232.792 223.952 232.424 224.416 232.168C224.888 231.912 225.432 231.784 226.048 231.784C226.656 231.784 227.192 231.912 227.656 232.168C228.12 232.424 228.476 232.792 228.724 233.272C228.98 233.744 229.108 234.3 229.108 234.94C229.108 235.58 228.98 236.14 228.724 236.62C228.476 237.092 228.12 237.456 227.656 237.712C227.192 237.968 226.656 238.096 226.048 238.096ZM226.036 236.92C226.548 236.92 226.936 236.756 227.2 236.428C227.472 236.092 227.608 235.596 227.608 234.94C227.608 234.292 227.472 233.8 227.2 233.464C226.928 233.12 226.544 232.948 226.048 232.948C225.544 232.948 225.156 233.12 224.884 233.464C224.612 233.8 224.476 234.292 224.476 234.94C224.476 235.596 224.608 236.092 224.872 236.428C225.144 236.756 225.532 236.92 226.036 236.92ZM231.926 232.072V233.74H230.246V232.072H231.926ZM231.926 236.32V238H230.246V236.32H231.926Z" fill="#253858"/>
</g>
<g clip-path="url(#clip1_0_812)">
<rect x="100" y="265" width="6" height="25" fill="#D9D9EC"/>
<rect x="109" y="265" width="6" height="25" fill="#D9D9EC"/>
<rect x="118" y="265" width="6" height="25" fill="#D9D9EC"/>
<rect x="126" y="265" width="6" height="25" fill="#D9D9EC"/>
<rect x="135" y="265" width="6" height="25" fill="#D9D9EC"/>
<rect x="144" y="265" width="6" height="25" fill="#D9D9EC"/>
<rect x="153" y="265" width="6" height="25" fill="#D9D9EC"/>
<rect x="162" y="265" width="6" height="25" fill="#D9D9EC"/>
<rect x="171" y="265" width="6" height="25" fill="#D9D9EC"/>
<rect x="180" y="265" width="6" height="25" fill="#D9D9EC"/>
<rect x="189" y="265" width="6" height="25" fill="#D9D9EC"/>
<rect x="197" y="265" width="6" height="25" fill="#D9D9EC"/>
<rect x="206" y="265" width="6" height="25" fill="#D9D9EC"/>
<rect x="215" y="265" width="6" height="25" fill="#D9D9EC"/>
<rect x="224" y="265" width="6" height="25" fill="#D9D9EC"/>
<rect x="233" y="265" width="6" height="25" fill="#FA96A6"/>
<rect x="242" y="265" width="6" height="25" fill="#A790FF"/>
<rect x="286" y="265" width="6" height="25" fill="#A790FF"/>
<rect x="295" y="265" width="6" height="25" fill="#A790FF"/>
<rect x="304" y="265" width="6" height="25" fill="#A790FF"/>
<rect x="251" y="265" width="6" height="25" fill="#FA96A6"/>
<rect x="260" y="265" width="6" height="25" fill="#FA96A6"/>
<rect x="268" y="265" width="6" height="25" fill="#FA96A6"/>
<rect x="277" y="265" width="6" height="25" fill="#FA96A6"/>
<rect x="313" y="265" width="6" height="25" fill="#FA96A6"/>
<rect x="322" y="265" width="6" height="25" fill="#A790FF"/>
<rect x="331" y="265" width="6" height="25" fill="#FA96A6"/>
<rect x="339" y="265" width="6" height="25" fill="#FA96A6"/>
<path d="M102.78 303.8C103.64 303.8 104.303 304.1 104.77 304.7C105.237 305.293 105.47 306.147 105.47 307.26C105.47 308.067 105.36 308.757 105.14 309.33C104.927 309.897 104.613 310.33 104.2 310.63C103.793 310.93 103.3 311.08 102.72 311.08C102.313 311.08 101.913 311.007 101.52 310.86C101.133 310.707 100.79 310.487 100.49 310.2L100.81 309.57C101.15 309.857 101.473 310.067 101.78 310.2C102.087 310.327 102.397 310.39 102.71 310.39C103.323 310.39 103.797 310.12 104.13 309.58C104.47 309.033 104.64 308.263 104.64 307.27V306.41L104.77 306.67C104.717 307.017 104.593 307.317 104.4 307.57C104.207 307.817 103.963 308.01 103.67 308.15C103.377 308.283 103.053 308.35 102.7 308.35C102.267 308.35 101.883 308.257 101.55 308.07C101.217 307.877 100.957 307.61 100.77 307.27C100.583 306.93 100.49 306.537 100.49 306.09C100.49 305.65 100.587 305.257 100.78 304.91C100.98 304.563 101.253 304.293 101.6 304.1C101.947 303.9 102.34 303.8 102.78 303.8ZM102.82 304.49C102.36 304.49 101.99 304.637 101.71 304.93C101.437 305.217 101.3 305.6 101.3 306.08C101.3 306.553 101.44 306.937 101.72 307.23C102 307.517 102.37 307.66 102.83 307.66C103.137 307.66 103.41 307.593 103.65 307.46C103.89 307.32 104.077 307.133 104.21 306.9C104.343 306.66 104.41 306.387 104.41 306.08C104.41 305.76 104.343 305.483 104.21 305.25C104.077 305.01 103.89 304.823 103.65 304.69C103.41 304.557 103.133 304.49 102.82 304.49ZM108.996 311.08C108.183 311.08 107.563 310.773 107.136 310.16C106.716 309.54 106.506 308.633 106.506 307.44C106.506 306.247 106.716 305.343 107.136 304.73C107.556 304.11 108.176 303.8 108.996 303.8C109.816 303.8 110.436 304.11 110.856 304.73C111.276 305.343 111.486 306.243 111.486 307.43C111.486 308.623 111.273 309.53 110.846 310.15C110.426 310.77 109.809 311.08 108.996 311.08ZM108.996 310.39C109.563 310.39 109.979 310.15 110.246 309.67C110.519 309.19 110.656 308.443 110.656 307.43C110.656 306.417 110.519 305.677 110.246 305.21C109.979 304.737 109.563 304.5 108.996 304.5C108.429 304.5 108.009 304.737 107.736 305.21C107.469 305.683 107.336 306.423 107.336 307.43C107.336 308.443 107.469 309.19 107.736 309.67C108.009 310.15 108.429 310.39 108.996 310.39ZM117.49 311.07C116.996 311.07 116.57 310.963 116.21 310.75C115.85 310.537 115.57 310.237 115.37 309.85C115.176 309.463 115.08 309.007 115.08 308.48C115.08 307.96 115.18 307.503 115.38 307.11C115.58 306.71 115.863 306.4 116.23 306.18C116.596 305.96 117.03 305.85 117.53 305.85C117.87 305.85 118.196 305.91 118.51 306.03C118.83 306.143 119.093 306.303 119.3 306.51L119.03 307.11C118.783 306.917 118.54 306.773 118.3 306.68C118.066 306.58 117.823 306.53 117.57 306.53C117.063 306.53 116.66 306.7 116.36 307.04C116.066 307.38 115.92 307.86 115.92 308.48C115.92 309.093 116.066 309.567 116.36 309.9C116.653 310.233 117.056 310.4 117.57 310.4C117.816 310.4 118.06 310.353 118.3 310.26C118.54 310.16 118.783 310.013 119.03 309.82L119.3 310.42C119.086 310.62 118.816 310.78 118.49 310.9C118.17 311.013 117.836 311.07 117.49 311.07ZM120.331 311V303.64H121.141V306.99L121.011 307.09C121.151 306.683 121.384 306.377 121.711 306.17C122.037 305.957 122.414 305.85 122.841 305.85C124.047 305.85 124.651 306.513 124.651 307.84V311H123.841V307.88C123.841 307.413 123.747 307.073 123.561 306.86C123.374 306.64 123.081 306.53 122.681 306.53C122.214 306.53 121.841 306.673 121.561 306.96C121.281 307.247 121.141 307.633 121.141 308.12V311H120.331ZM130.3 310.4C130.08 310.607 129.797 310.77 129.45 310.89C129.11 311.01 128.76 311.07 128.4 311.07C127.88 311.07 127.43 310.967 127.05 310.76C126.677 310.553 126.387 310.257 126.18 309.87C125.98 309.477 125.88 309.01 125.88 308.47C125.88 307.95 125.98 307.493 126.18 307.1C126.38 306.707 126.657 306.4 127.01 306.18C127.37 305.96 127.784 305.85 128.25 305.85C128.697 305.85 129.08 305.95 129.4 306.15C129.72 306.343 129.964 306.623 130.13 306.99C130.304 307.357 130.39 307.797 130.39 308.31V308.46H126.59V307.93H129.93L129.67 308.3C129.684 307.713 129.567 307.263 129.32 306.95C129.08 306.637 128.727 306.48 128.26 306.48C127.774 306.48 127.39 306.653 127.11 307C126.837 307.34 126.7 307.813 126.7 308.42C126.7 309.073 126.844 309.567 127.13 309.9C127.424 310.233 127.85 310.4 128.41 310.4C128.704 310.4 128.984 310.353 129.25 310.26C129.524 310.16 129.784 310.01 130.03 309.81L130.3 310.4ZM133.73 311.07C133.237 311.07 132.81 310.963 132.45 310.75C132.09 310.537 131.81 310.237 131.61 309.85C131.417 309.463 131.32 309.007 131.32 308.48C131.32 307.96 131.42 307.503 131.62 307.11C131.82 306.71 132.103 306.4 132.47 306.18C132.837 305.96 133.27 305.85 133.77 305.85C134.11 305.85 134.437 305.91 134.75 306.03C135.07 306.143 135.333 306.303 135.54 306.51L135.27 307.11C135.023 306.917 134.78 306.773 134.54 306.68C134.307 306.58 134.063 306.53 133.81 306.53C133.303 306.53 132.9 306.7 132.6 307.04C132.307 307.38 132.16 307.86 132.16 308.48C132.16 309.093 132.307 309.567 132.6 309.9C132.893 310.233 133.297 310.4 133.81 310.4C134.057 310.4 134.3 310.353 134.54 310.26C134.78 310.16 135.023 310.013 135.27 309.82L135.54 310.42C135.327 310.62 135.057 310.78 134.73 310.9C134.41 311.013 134.077 311.07 133.73 311.07ZM139.961 311L137.221 308.43L139.751 305.98H140.781L137.981 308.66L138.011 308.15L141.021 311H139.961ZM136.571 311V303.64H137.381V311H136.571ZM143.33 311.07C142.483 311.07 141.813 310.853 141.32 310.42L141.59 309.82C141.856 310.027 142.13 310.18 142.41 310.28C142.696 310.373 143.013 310.42 143.36 310.42C143.74 310.42 144.026 310.357 144.22 310.23C144.42 310.097 144.52 309.907 144.52 309.66C144.52 309.46 144.453 309.303 144.32 309.19C144.186 309.07 143.966 308.973 143.66 308.9L142.81 308.7C142.39 308.607 142.063 308.44 141.83 308.2C141.603 307.96 141.49 307.673 141.49 307.34C141.49 307.047 141.57 306.79 141.73 306.57C141.89 306.343 142.113 306.167 142.4 306.04C142.686 305.913 143.026 305.85 143.42 305.85C143.773 305.85 144.106 305.907 144.42 306.02C144.733 306.133 144.996 306.297 145.21 306.51L144.94 307.1C144.7 306.9 144.453 306.753 144.2 306.66C143.953 306.56 143.693 306.51 143.42 306.51C143.06 306.51 142.78 306.58 142.58 306.72C142.386 306.86 142.29 307.05 142.29 307.29C142.29 307.497 142.35 307.66 142.47 307.78C142.596 307.9 142.796 307.993 143.07 308.06L143.92 308.27C144.393 308.37 144.74 308.537 144.96 308.77C145.186 308.997 145.3 309.287 145.3 309.64C145.3 310.073 145.123 310.42 144.77 310.68C144.416 310.94 143.936 311.07 143.33 311.07Z" fill="#253858"/>
<path d="M308.96 311V303.88H309.78V311H308.96ZM303.88 311V303.88H304.69V311H303.88ZM304.26 307.73V307.04H309.42V307.73H304.26ZM313.516 311.07C313.036 311.07 312.616 310.963 312.256 310.75C311.903 310.537 311.626 310.237 311.426 309.85C311.233 309.457 311.136 308.993 311.136 308.46C311.136 307.933 311.233 307.473 311.426 307.08C311.626 306.687 311.903 306.383 312.256 306.17C312.616 305.957 313.036 305.85 313.516 305.85C313.996 305.85 314.413 305.957 314.766 306.17C315.126 306.383 315.403 306.687 315.596 307.08C315.796 307.473 315.896 307.933 315.896 308.46C315.896 308.993 315.796 309.457 315.596 309.85C315.403 310.237 315.126 310.537 314.766 310.75C314.413 310.963 313.996 311.07 313.516 311.07ZM313.516 310.4C314.01 310.4 314.39 310.237 314.656 309.91C314.93 309.577 315.066 309.093 315.066 308.46C315.066 307.84 314.93 307.363 314.656 307.03C314.383 306.697 314.003 306.53 313.516 306.53C313.03 306.53 312.646 306.697 312.366 307.03C312.093 307.363 311.956 307.84 311.956 308.46C311.956 309.093 312.09 309.577 312.356 309.91C312.63 310.237 313.016 310.4 313.516 310.4ZM312.786 305.32H312.036L313.226 303.28H313.796L314.986 305.32H314.236L313.516 303.88L312.786 305.32ZM317.159 311V307.38C317.159 307.147 317.152 306.913 317.139 306.68C317.132 306.44 317.112 306.203 317.079 305.97H317.849L317.939 307.01L317.839 307.08C317.959 306.687 318.166 306.383 318.459 306.17C318.759 305.957 319.112 305.85 319.519 305.85C320.006 305.85 320.382 305.97 320.649 306.21C320.922 306.45 321.096 306.817 321.169 307.31L320.929 307.18C321.036 306.773 321.249 306.45 321.569 306.21C321.896 305.97 322.286 305.85 322.739 305.85C323.292 305.85 323.709 306.017 323.989 306.35C324.269 306.677 324.409 307.173 324.409 307.84V311H323.599V307.88C323.599 307.413 323.516 307.073 323.349 306.86C323.182 306.64 322.919 306.53 322.559 306.53C322.139 306.53 321.806 306.673 321.559 306.96C321.319 307.247 321.199 307.637 321.199 308.13V311H320.389V307.88C320.389 307.413 320.302 307.073 320.129 306.86C319.962 306.64 319.699 306.53 319.339 306.53C318.912 306.53 318.576 306.673 318.329 306.96C318.089 307.247 317.969 307.637 317.969 308.13V311H317.159ZM328.555 311V307.38C328.555 307.147 328.549 306.913 328.535 306.68C328.529 306.44 328.509 306.203 328.475 305.97H329.245L329.335 307.01L329.235 307.09C329.375 306.683 329.609 306.377 329.935 306.17C330.262 305.957 330.639 305.85 331.065 305.85C332.272 305.85 332.875 306.513 332.875 307.84V311H332.065V307.88C332.065 307.413 331.972 307.073 331.785 306.86C331.599 306.64 331.305 306.53 330.905 306.53C330.439 306.53 330.065 306.673 329.785 306.96C329.505 307.247 329.365 307.633 329.365 308.12V311H328.555ZM336.335 311.07C335.888 311.07 335.495 310.967 335.155 310.76C334.822 310.547 334.562 310.247 334.375 309.86C334.195 309.467 334.105 309.007 334.105 308.48C334.105 307.953 334.198 307.493 334.385 307.1C334.572 306.707 334.832 306.4 335.165 306.18C335.505 305.96 335.895 305.85 336.335 305.85C336.795 305.85 337.185 305.963 337.505 306.19C337.825 306.417 338.042 306.74 338.155 307.16L338.035 307.24V305.97H338.835V311H338.035V309.7L338.155 309.76C338.042 310.18 337.825 310.503 337.505 310.73C337.185 310.957 336.795 311.07 336.335 311.07ZM336.495 310.4C336.988 310.4 337.368 310.233 337.635 309.9C337.902 309.56 338.035 309.08 338.035 308.46C338.035 307.84 337.898 307.363 337.625 307.03C337.358 306.697 336.982 306.53 336.495 306.53C336.002 306.53 335.615 306.703 335.335 307.05C335.062 307.39 334.925 307.867 334.925 308.48C334.925 309.093 335.062 309.567 335.335 309.9C335.615 310.233 336.002 310.4 336.495 310.4ZM340.161 313.27L339.991 312.64C340.298 312.567 340.554 312.48 340.761 312.38C340.974 312.287 341.151 312.163 341.291 312.01C341.438 311.857 341.564 311.653 341.671 311.4L341.991 310.66L342.171 310.41L344.011 305.97H344.821L342.471 311.46C342.291 311.867 342.088 312.19 341.861 312.43C341.634 312.677 341.378 312.863 341.091 312.99C340.811 313.117 340.501 313.21 340.161 313.27ZM342.001 311.26L339.741 305.97H340.591L342.411 310.41L342.001 311.26Z" fill="#253858"/>
<path d="M190.83 311V310.38L193.32 307.62C193.653 307.247 193.897 306.91 194.05 306.61C194.203 306.31 194.28 306.01 194.28 305.71C194.28 305.317 194.167 305.017 193.94 304.81C193.713 304.597 193.39 304.49 192.97 304.49C192.623 304.49 192.283 304.56 191.95 304.7C191.617 304.833 191.283 305.037 190.95 305.31L190.64 304.68C190.92 304.413 191.273 304.2 191.7 304.04C192.127 303.88 192.557 303.8 192.99 303.8C193.423 303.8 193.797 303.877 194.11 304.03C194.43 304.177 194.677 304.39 194.85 304.67C195.023 304.95 195.11 305.283 195.11 305.67C195.11 306.077 195.017 306.47 194.83 306.85C194.65 307.223 194.347 307.643 193.92 308.11L191.52 310.71L191.46 310.31H195.41V311H190.83ZM198.996 311.07C198.476 311.07 198.026 310.993 197.646 310.84C197.266 310.68 196.969 310.453 196.756 310.16C196.549 309.867 196.446 309.517 196.446 309.11C196.446 308.617 196.613 308.207 196.946 307.88C197.279 307.553 197.726 307.35 198.286 307.27L198.236 307.42C197.716 307.32 197.313 307.117 197.026 306.81C196.746 306.503 196.606 306.13 196.606 305.69C196.606 305.303 196.706 304.97 196.906 304.69C197.113 304.403 197.393 304.183 197.746 304.03C198.106 303.877 198.523 303.8 198.996 303.8C199.469 303.8 199.883 303.877 200.236 304.03C200.596 304.183 200.876 304.403 201.076 304.69C201.283 304.97 201.386 305.303 201.386 305.69C201.386 306.13 201.243 306.507 200.956 306.82C200.676 307.127 200.279 307.327 199.766 307.42L199.706 307.27C200.286 307.35 200.736 307.557 201.056 307.89C201.383 308.217 201.546 308.623 201.546 309.11C201.546 309.517 201.439 309.867 201.226 310.16C201.019 310.453 200.726 310.68 200.346 310.84C199.966 310.993 199.516 311.07 198.996 311.07ZM198.996 310.39C199.556 310.39 199.986 310.277 200.286 310.05C200.586 309.823 200.736 309.493 200.736 309.06C200.736 308.653 200.573 308.337 200.246 308.11C199.919 307.877 199.503 307.733 198.996 307.68C198.489 307.733 198.073 307.877 197.746 308.11C197.419 308.337 197.256 308.653 197.256 309.06C197.256 309.493 197.406 309.823 197.706 310.05C198.006 310.277 198.436 310.39 198.996 310.39ZM198.996 307.11C199.463 307.057 199.839 306.913 200.126 306.68C200.419 306.447 200.566 306.137 200.566 305.75C200.566 305.35 200.426 305.04 200.146 304.82C199.873 304.593 199.489 304.48 198.996 304.48C198.503 304.48 198.116 304.593 197.836 304.82C197.563 305.04 197.426 305.35 197.426 305.75C197.426 306.137 197.569 306.447 197.856 306.68C198.149 306.913 198.529 307.057 198.996 307.11ZM202.632 309.97H203.662V311H202.632V309.97ZM207.417 311.07C206.983 311.07 206.557 310.993 206.137 310.84C205.717 310.68 205.363 310.463 205.077 310.19L205.387 309.56C205.713 309.827 206.043 310.03 206.377 310.17C206.717 310.31 207.063 310.38 207.417 310.38C207.917 310.38 208.307 310.24 208.587 309.96C208.873 309.673 209.017 309.287 209.017 308.8C209.017 308.487 208.953 308.213 208.827 307.98C208.7 307.74 208.52 307.553 208.287 307.42C208.06 307.287 207.79 307.22 207.477 307.22C207.137 307.22 206.83 307.29 206.557 307.43C206.29 307.563 206.053 307.77 205.847 308.05H205.277V303.88H209.547V304.56H206.097V307.44L205.837 307.41C206.03 307.13 206.277 306.913 206.577 306.76C206.883 306.607 207.227 306.53 207.607 306.53C208.06 306.53 208.453 306.627 208.787 306.82C209.12 307.007 209.377 307.27 209.557 307.61C209.737 307.95 209.827 308.343 209.827 308.79C209.827 309.237 209.727 309.633 209.527 309.98C209.333 310.32 209.057 310.587 208.697 310.78C208.337 310.973 207.91 311.07 207.417 311.07ZM212.313 311H211.433L214.923 304.24L214.993 304.57H210.953V303.88H215.653V304.49L212.313 311ZM218.199 308.19C217.712 308.19 217.325 308.01 217.039 307.65C216.759 307.29 216.619 306.743 216.619 306.01C216.619 305.27 216.759 304.723 217.039 304.37C217.325 304.017 217.712 303.84 218.199 303.84C218.685 303.84 219.069 304.017 219.349 304.37C219.629 304.723 219.769 305.27 219.769 306.01C219.769 306.743 219.629 307.29 219.349 307.65C219.069 308.01 218.685 308.19 218.199 308.19ZM218.199 307.61C218.479 307.61 218.685 307.483 218.819 307.23C218.959 306.977 219.029 306.57 219.029 306.01C219.029 305.457 218.959 305.053 218.819 304.8C218.685 304.547 218.479 304.42 218.199 304.42C217.919 304.42 217.709 304.547 217.569 304.8C217.435 305.053 217.369 305.457 217.369 306.01C217.369 306.57 217.435 306.977 217.569 307.23C217.709 307.483 217.919 307.61 218.199 307.61ZM218.069 311L222.189 303.88H222.959L218.849 311H218.069ZM222.829 311.04C222.342 311.04 221.955 310.86 221.669 310.5C221.389 310.14 221.249 309.593 221.249 308.86C221.249 308.12 221.389 307.573 221.669 307.22C221.955 306.867 222.342 306.69 222.829 306.69C223.315 306.69 223.699 306.867 223.979 307.22C224.259 307.573 224.399 308.12 224.399 308.86C224.399 309.593 224.259 310.14 223.979 310.5C223.699 310.86 223.315 311.04 222.829 311.04ZM222.829 310.46C223.109 310.46 223.315 310.333 223.449 310.08C223.589 309.827 223.659 309.42 223.659 308.86C223.659 308.307 223.589 307.903 223.449 307.65C223.315 307.397 223.109 307.27 222.829 307.27C222.549 307.27 222.339 307.397 222.199 307.65C222.065 307.903 221.999 308.307 221.999 308.86C221.999 309.42 222.065 309.827 222.199 310.08C222.339 310.333 222.549 310.46 222.829 310.46ZM230.474 311.08C230.107 311.08 229.764 311.05 229.444 310.99C229.124 310.923 228.827 310.823 228.554 310.69C228.281 310.55 228.034 310.38 227.814 310.18L228.124 309.55C228.484 309.85 228.844 310.063 229.204 310.19C229.571 310.317 229.997 310.38 230.484 310.38C231.051 310.38 231.491 310.27 231.804 310.05C232.117 309.823 232.274 309.507 232.274 309.1C232.274 308.853 232.194 308.657 232.034 308.51C231.881 308.357 231.667 308.237 231.394 308.15C231.127 308.057 230.824 307.97 230.484 307.89C230.144 307.817 229.821 307.733 229.514 307.64C229.207 307.54 228.934 307.417 228.694 307.27C228.461 307.123 228.277 306.937 228.144 306.71C228.011 306.483 227.944 306.2 227.944 305.86C227.944 305.453 228.051 305.097 228.264 304.79C228.477 304.477 228.777 304.233 229.164 304.06C229.551 303.887 230.007 303.8 230.534 303.8C230.861 303.8 231.174 303.837 231.474 303.91C231.774 303.977 232.051 304.077 232.304 304.21C232.564 304.343 232.794 304.507 232.994 304.7L232.674 305.33C232.347 305.043 232.011 304.833 231.664 304.7C231.317 304.567 230.941 304.5 230.534 304.5C229.981 304.5 229.547 304.617 229.234 304.85C228.921 305.083 228.764 305.41 228.764 305.83C228.764 306.09 228.834 306.3 228.974 306.46C229.114 306.62 229.311 306.75 229.564 306.85C229.817 306.943 230.107 307.03 230.434 307.11C230.781 307.19 231.114 307.277 231.434 307.37C231.754 307.463 232.037 307.58 232.284 307.72C232.537 307.853 232.737 308.03 232.884 308.25C233.031 308.463 233.104 308.737 233.104 309.07C233.104 309.477 232.997 309.83 232.784 310.13C232.571 310.43 232.267 310.663 231.874 310.83C231.481 310.997 231.014 311.08 230.474 311.08ZM234.565 311H233.715L236.845 303.88H237.565L240.695 311H239.855L237.065 304.48H237.365L234.565 311ZM235.045 309.17L235.335 308.49H239.075L239.365 309.17H235.045ZM241.759 311V303.88H246.159V304.57H242.569V307.04H245.959V307.73H242.569V311H241.759ZM247.394 311V303.88H251.894V304.56H248.204V307.04H251.694V307.73H248.204V310.32H251.894V311H247.394Z" fill="#253858"/>
</g>
<rect x="100" y="117" width="80" height="15" rx="2" fill="#253858"/>
<path opacity="0.1" d="M76.25 155.5H368.5" stroke="#4F5F83" stroke-linecap="square"/>
<path d="M388 160C414.51 160 436 138.51 436 112C436 85.4903 414.51 64 388 64C361.49 64 340 85.4903 340 112C340 138.51 361.49 160 388 160Z" fill="url(#paint4_linear_0_812)"/>
<path opacity="0.15" d="M388 191C431.63 191 467 155.63 467 112C467 68.3695 431.63 33 388 33C344.37 33 309 68.3695 309 112C309 155.63 344.37 191 388 191Z" fill="url(#paint5_linear_0_812)" stroke="#6D4BFF"/>
<path opacity="0.1" d="M388 223C449.304 223 499 173.304 499 112C499 50.6964 449.304 1 388 1C326.696 1 277 50.6964 277 112C277 173.304 326.696 223 388 223Z" fill="url(#paint6_linear_0_812)" stroke="#6D4BFF"/>
<path fill-rule="evenodd" clip-rule="evenodd" d="M386.5 121C392.851 121 398 115.851 398 109.5C398 103.149 392.851 98 386.5 98C380.149 98 375 103.149 375 109.5C375 115.851 380.149 121 386.5 121Z" stroke="white" stroke-width="3" stroke-linecap="round" stroke-linejoin="round"/>
<path d="M395 120L401 126" stroke="white" stroke-width="5" stroke-linecap="round" stroke-linejoin="round"/>
<defs>
<filter id="filter0_d_0_812" x="4" y="88" width="378" height="340" filterUnits="userSpaceOnUse" color-interpolation-filters="sRGB">
<feFlood flood-opacity="0" result="BackgroundImageFix"/>
<feColorMatrix in="SourceAlpha" type="matrix" values="0 0 0 0 0 0 0 0 0 0 0 0 0 0 0 0 0 0 127 0" result="hardAlpha"/>
<feOffset dy="2"/>
<feGaussianBlur stdDeviation="18"/>
<feColorMatrix type="matrix" values="0 0 0 0 0 0 0 0 0 0 0 0 0 0 0 0 0 0 0.113391 0"/>
<feBlend mode="normal" in2="BackgroundImageFix" result="effect1_dropShadow_0_812"/>
<feBlend mode="normal" in="SourceGraphic" in2="effect1_dropShadow_0_812" result="shape"/>
</filter>
<filter id="filter1_d_0_812" x="78" y="120" width="379" height="323" filterUnits="userSpaceOnUse" color-interpolation-filters="sRGB">
<feFlood flood-opacity="0" result="BackgroundImageFix"/>
<feColorMatrix in="SourceAlpha" type="matrix" values="0 0 0 0 0 0 0 0 0 0 0 0 0 0 0 0 0 0 127 0" result="hardAlpha"/>
<feOffset dy="2"/>
<feGaussianBlur stdDeviation="18"/>
<feColorMatrix type="matrix" values="0 0 0 0 0 0 0 0 0 0 0 0 0 0 0 0 0 0 0.113391 0"/>
<feBlend mode="normal" in2="BackgroundImageFix" result="effect1_dropShadow_0_812"/>
<feBlend mode="normal" in="SourceGraphic" in2="effect1_dropShadow_0_812" result="shape"/>
</filter>
<filter id="filter2_d_0_812" x="40" y="56" width="365" height="409" filterUnits="userSpaceOnUse" color-interpolation-filters="sRGB">
<feFlood flood-opacity="0" result="BackgroundImageFix"/>
<feColorMatrix in="SourceAlpha" type="matrix" values="0 0 0 0 0 0 0 0 0 0 0 0 0 0 0 0 0 0 127 0" result="hardAlpha"/>
<feOffset dy="2"/>
<feGaussianBlur stdDeviation="18"/>
<feColorMatrix type="matrix" values="0 0 0 0 0 0 0 0 0 0 0 0 0 0 0 0 0 0 0.113391 0"/>
<feBlend mode="normal" in2="BackgroundImageFix" result="effect1_dropShadow_0_812"/>
<feBlend mode="normal" in="SourceGraphic" in2="effect1_dropShadow_0_812" result="shape"/>
</filter>
<linearGradient id="paint0_linear_0_812" x1="62.1268" y1="135.934" x2="122.902" y2="155.218" gradientUnits="userSpaceOnUse">
<stop stop-color="#F5F5FA"/>
<stop offset="1" stop-color="#EEECF8"/>
</linearGradient>
<linearGradient id="paint1_linear_0_812" x1="388.373" y1="379.814" x2="327.324" y2="360.923" gradientUnits="userSpaceOnUse">
<stop stop-color="#F5F5FA"/>
<stop offset="1" stop-color="#EEECF8"/>
</linearGradient>
<linearGradient id="paint2_linear_0_812" x1="114" y1="173" x2="0" y2="173" gradientUnits="userSpaceOnUse">
<stop stop-color="#6D4BFF" stop-opacity="0.303158"/>
<stop offset="1" stop-color="#6D4BFF" stop-opacity="0.01"/>
</linearGradient>
<linearGradient id="paint3_linear_0_812" x1="335.539" y1="379.515" x2="477" y2="379.515" gradientUnits="userSpaceOnUse">
<stop stop-color="#09D0BD" stop-opacity="0.3"/>
<stop offset="1" stop-color="#09D0BD" stop-opacity="0.01"/>
</linearGradient>
<linearGradient id="paint4_linear_0_812" x1="303.351" y1="71.5652" x2="342.469" y2="210.12" gradientUnits="userSpaceOnUse">
<stop stop-color="#96C6FF"/>
<stop offset="1" stop-color="#6D4BFF"/>
</linearGradient>
<linearGradient id="paint5_linear_0_812" x1="248.682" y1="45.451" x2="313.063" y2="273.488" gradientUnits="userSpaceOnUse">
<stop stop-color="#96C6FF"/>
<stop offset="1" stop-color="#6D4BFF"/>
</linearGradient>
<linearGradient id="paint6_linear_0_812" x1="192.249" y1="18.4945" x2="282.709" y2="338.901" gradientUnits="userSpaceOnUse">
<stop stop-color="#96C6FF"/>
<stop offset="1" stop-color="#6D4BFF"/>
</linearGradient>
<clipPath id="clip0_0_812">
<rect width="189" height="56" fill="white" transform="translate(100 185)"/>
</clipPath>
<clipPath id="clip1_0_812">
<rect width="245" height="49" fill="white" transform="translate(100 265)"/>
</clipPath>
</defs>
</svg>
