<svg width="541" height="498" viewBox="0 0 541 498" fill="none" xmlns="http://www.w3.org/2000/svg">
<path d="M134.5 211C192.766 211 240 163.766 240 105.5C240 47.234 192.766 0 134.5 0C76.234 0 29 47.234 29 105.5C29 163.766 76.234 211 134.5 211Z" fill="url(#paint0_linear_0_655)"/>
<path d="M262 184L541 498H262V184Z" fill="url(#paint1_linear_0_655)"/>
<g opacity="0.2">
<path d="M57 339.1H79.6V361.7H57" stroke="#D5CFE7" stroke-width="2"/>
<path d="M57 361.7H79.6V384.3H57" stroke="#D5CFE7" stroke-width="2"/>
<path d="M57 361.7H79.6V384.3H57" stroke="#D5CFE7" stroke-width="2"/>
<path d="M57 384.3H79.6V406.9H57" stroke="#D5CFE7" stroke-width="2"/>
<path d="M57 384.3H79.6V406.9H57" stroke="#D5CFE7" stroke-width="2"/>
<path d="M57 406.9H79.6V429.5H57" stroke="#D5CFE7" stroke-width="2"/>
<path d="M57 406.9H79.6V429.5H57" stroke="#D5CFE7" stroke-width="2"/>
<path d="M57 429.5H79.6V452.1H57" stroke="#D5CFE7" stroke-width="2"/>
<path d="M57 429.5H79.6V452.1H57" stroke="#D5CFE7" stroke-width="2"/>
<path d="M57 452.1H79.6V474.7H57" stroke="#D5CFE7" stroke-width="2"/>
<path d="M57 452.1H79.6V474.7H57" stroke="#D5CFE7" stroke-width="2"/>
<path d="M57 474.7H79.6V497.3" stroke="#D5CFE7" stroke-width="2"/>
<path d="M79.6 497.3V474.7H102.2V497.3" stroke="#D5CFE7" stroke-width="2"/>
<path d="M102.2 497.3V474.7H124.8V497.3" stroke="#D5CFE7" stroke-width="2"/>
<path d="M102.2 497.3V474.7H124.8V497.3" stroke="#D5CFE7" stroke-width="2"/>
<path d="M124.8 497.3V474.7H147.4V497.3" stroke="#D5CFE7" stroke-width="2"/>
<path d="M124.8 497.3V474.7H147.4V497.3" stroke="#D5CFE7" stroke-width="2"/>
<path d="M147.4 497.3V474.7H170V497.3" stroke="#D5CFE7" stroke-width="2"/>
<path d="M147.4 497.3V474.7H170V497.3" stroke="#D5CFE7" stroke-width="2"/>
<path d="M170 497.3V474.7H192.6V497.3" stroke="#D5CFE7" stroke-width="2"/>
<path d="M170 497.3V474.7H192.6V497.3" stroke="#D5CFE7" stroke-width="2"/>
<path d="M192.6 497.3V474.7H215.2V497.3" stroke="#D5CFE7" stroke-width="2"/>
<path d="M192.6 497.3V474.7H215.2V497.3" stroke="#D5CFE7" stroke-width="2"/>
<path d="M215.2 497.3V474.7H237.8V497.3" stroke="#D5CFE7" stroke-width="2"/>
</g>
<rect opacity="0.3" x="411" y="53" width="129" height="5.143" rx="2.571" fill="#09D0BD"/>
<rect opacity="0.3" x="411" y="63.286" width="74.684" height="5.143" rx="2.571" fill="#09D0BD"/>
<rect opacity="0.3" x="411" y="83.857" width="74.684" height="5.143" rx="2.571" fill="#09D0BD"/>
<rect opacity="0.3" x="429.105" y="73.571" width="47.526" height="5.143" rx="2.571" fill="#09D0BD"/>
<rect opacity="0.3" x="483.421" y="73.571" width="47.526" height="5.143" rx="2.571" fill="#09D0BD"/>
<rect opacity="0.3" x="429.105" y="8" width="74.684" height="5.143" rx="2.571" fill="#09D0BD"/>
<rect opacity="0.3" x="429.105" y="18.286" width="43.238" height="5.143" rx="2.571" fill="#09D0BD"/>
<rect opacity="0.3" x="429.105" y="38.857" width="43.238" height="5.143" rx="2.571" fill="#09D0BD"/>
<rect opacity="0.3" x="439.587" y="28.571" width="27.515" height="5.143" rx="2.571" fill="#09D0BD"/>
<rect opacity="0.3" x="471.033" y="28.571" width="27.515" height="5.143" rx="2.571" fill="#09D0BD"/>
<path d="M87 112.034V112.034V91.2667C87 90.0148 88.0109 89 89.258 89V89H417.742C418.989 89 420 90.0148 420 91.2667V205.733C420 206.985 418.989 208 417.742 208" stroke="#09D0BD" stroke-width="2"/>
<rect x="1" y="112" width="192" height="164" rx="6" stroke="#09D0BD" stroke-width="2"/>
<rect x="16" y="127" width="144" height="135" rx="2" fill="#09D0BD"/>
<g clip-path="url(#clip0_0_655)">
<rect x="97" y="36" width="385" height="421" rx="5" fill="white" stroke="#E5E5E5" stroke-width="2"/>
<path d="M97 167H482V452C482 454.761 479.761 457 477 457H102C99.2386 457 97 454.761 97 452V167Z" fill="#F5F7FA" stroke="#E5E5E5" stroke-width="2"/>
<rect x="127" y="66" width="78" height="78" rx="7.684" fill="url(#paint2_linear_0_655)" fill-opacity="0.23"/>
<mask id="mask0_0_655" style="mask-type:alpha" maskUnits="userSpaceOnUse" x="137" y="76" width="58" height="58">
<path fill-rule="evenodd" clip-rule="evenodd" d="M142.961 76.8333C140.13 76.8333 137.833 79.1289 137.833 81.9625V128.039C137.833 130.87 140.13 133.167 142.961 133.167H189.038C191.871 133.167 194.167 130.87 194.167 128.039V81.9625C194.167 79.1289 191.871 76.8333 189.038 76.8333H142.961Z" fill="white"/>
</mask>
<g mask="url(#mask0_0_655)">
<path d="M142.961 76.8333C140.13 76.8333 137.833 79.1289 137.833 81.9625V128.039C137.833 130.87 140.13 133.167 142.961 133.167H189.038C191.871 133.167 194.167 130.87 194.167 128.039V81.9625C194.167 79.1289 191.871 76.8333 189.038 76.8333H142.961Z" fill="url(#paint3_linear_0_655)"/>
</g>
<path d="M153.034 111.706C155.997 111.706 158.399 114.108 158.399 117.071C158.399 120.034 155.997 122.437 153.034 122.437C150.072 122.437 147.669 120.034 147.669 117.071C147.669 114.108 150.072 111.706 153.034 111.706Z" fill="#0056D7"/>
<path d="M157.505 117.966H175.389V115.283H157.505V117.966Z" fill="url(#paint4_linear_0_655)"/>
<path d="M147.897 113.705C149.726 110.315 153.879 109.092 157.174 110.974C160.469 112.855 161.659 117.127 159.83 120.516C158.001 123.906 153.847 125.129 150.552 123.247C147.257 121.366 146.068 117.094 147.897 113.705Z" fill="white"/>
<path d="M161.759 91.6298C163.132 89.086 166.249 88.169 168.722 89.5796C171.195 90.9917 172.088 94.1979 170.716 96.7416C169.343 99.2854 166.226 100.204 163.752 98.7918C161.279 97.3797 160.386 94.1736 161.759 91.6298Z" fill="#0258D9"/>
<mask id="mask1_0_655" style="mask-type:alpha" maskUnits="userSpaceOnUse" x="153" y="95" width="13" height="19">
<path fill-rule="evenodd" clip-rule="evenodd" d="M153.84 111.896L156.233 113.179L165.53 96.9839L163.138 95.7009L153.84 111.896Z" fill="white"/>
</mask>
<g mask="url(#mask1_0_655)">
<path d="M153.84 111.896L156.233 113.179L165.53 96.9839L163.138 95.7009L153.84 111.896Z" fill="url(#paint5_linear_0_655)"/>
</g>
<path d="M162.977 86.6751C166.43 84.758 170.784 86.0045 172.701 89.4581C174.618 92.9118 173.371 97.265 169.918 99.1821C166.464 101.099 162.111 99.8527 160.194 96.399C158.276 92.9454 159.523 88.5922 162.977 86.6751Z" fill="white"/>
<mask id="mask2_0_655" style="mask-type:alpha" maskUnits="userSpaceOnUse" x="166" y="95" width="13" height="19">
<path fill-rule="evenodd" clip-rule="evenodd" d="M166.446 96.9651L175.745 113.162L178.136 111.879L168.838 95.6821L166.446 96.9651Z" fill="white"/>
</mask>
<g mask="url(#mask2_0_655)">
<path d="M166.446 96.9651L175.745 113.162L178.136 111.879L168.838 95.6821L166.446 96.9651Z" fill="url(#paint6_linear_0_655)"/>
</g>
<path d="M176.304 112.481C178.848 111.069 182.054 111.987 183.466 114.531C184.878 117.075 183.959 120.281 181.416 121.693C178.872 123.105 175.666 122.186 174.254 119.643C172.843 117.099 173.76 113.893 176.304 112.481Z" fill="#0258D9"/>
<path d="M178.828 110.068C182.704 110.068 185.847 113.21 185.847 117.087C185.847 120.963 182.704 124.106 178.828 124.106C174.952 124.106 171.809 120.963 171.809 117.087C171.809 113.21 174.952 110.068 178.828 110.068Z" fill="white"/>
<path opacity="0.3" d="M228 128.455H353" stroke="#C6D0E6" stroke-width="6.5" stroke-linecap="round"/>
<path opacity="0.3" d="M228 94.5546L338.158 94.4182" stroke="#C6D0E6" stroke-width="6.5" stroke-linecap="round"/>
<path opacity="0.25" d="M228 110.918L290.494 110.782" stroke="#C6D0E6" stroke-width="6.5" stroke-linecap="round"/>
<rect x="127" y="197" width="44" height="12" rx="2" fill="#6D4BFF"/>
<rect opacity="0.5" x="180" y="197" width="59" height="12" rx="2" fill="#6D4BFF"/>
<rect x="127" y="232" width="151" height="80" stroke="#6D4BFF"/>
<rect opacity="0.2" x="127" y="334" width="325" height="49" stroke="#6D4BFF"/>
<rect opacity="0.2" x="301" y="232" width="151" height="80" stroke="#6D4BFF"/>
<path d="M207.02 268.9V271H198.24V268.9H201.36V259.72L198.46 261.46V259.16L202.42 256.76H203.92V268.9H207.02Z" fill="#FF1010"/>
<rect x="164" y="283" width="78" height="6" fill="#C6D0E6"/>
<rect x="196" y="346" width="78" height="6" fill="#253858"/>
<rect opacity="0.3" x="196" y="360" width="43" height="6" fill="#253858"/>
<path d="M371.02 268.9V271H362.24V268.9H365.36V259.72L362.46 261.46V259.16L366.42 256.76H367.92V268.9H371.02ZM371.492 272.18L376.672 255.94H378.812L373.592 272.18H371.492ZM389.321 268.9V271H380.541V268.9H383.661V259.72L380.761 261.46V259.16L384.721 256.76H386.221V268.9H389.321Z" fill="#253858"/>
<rect x="337" y="283" width="78" height="6" fill="#C6D0E6"/>
<rect x="366" y="346" width="71" height="25" rx="2" fill="#6D4BFF"/>
<rect x="144" y="346" width="36" height="13" rx="2" fill="#FFC400"/>
</g>
<defs>
<linearGradient id="paint0_linear_0_655" x1="164.552" y1="230.58" x2="301.851" y2="140.814" gradientUnits="userSpaceOnUse">
<stop stop-color="#F5F5FA"/>
<stop offset="1" stop-color="#EEECF8"/>
</linearGradient>
<linearGradient id="paint1_linear_0_655" x1="366.143" y1="524.434" x2="524.582" y2="573.468" gradientUnits="userSpaceOnUse">
<stop stop-color="#F5F5FA"/>
<stop offset="1" stop-color="#EEECF8"/>
</linearGradient>
<linearGradient id="paint2_linear_0_655" x1="166" y1="27" x2="88" y2="105" gradientUnits="userSpaceOnUse">
<stop stop-color="#3258D1"/>
<stop offset="1" stop-color="#6D4BFF"/>
</linearGradient>
<linearGradient id="paint3_linear_0_655" x1="201.259" y1="192.472" x2="340.675" y2="80.8449" gradientUnits="userSpaceOnUse">
<stop stop-color="#6D4BFF"/>
<stop offset="1" stop-color="#D62196"/>
</linearGradient>
<linearGradient id="paint4_linear_0_655" x1="158.833" y1="117.587" x2="171.673" y2="117.587" gradientUnits="userSpaceOnUse">
<stop stop-color="white" stop-opacity="0.01"/>
<stop offset="1" stop-color="white"/>
</linearGradient>
<linearGradient id="paint5_linear_0_655" x1="165.052" y1="86.6652" x2="146.867" y2="92.3255" gradientUnits="userSpaceOnUse">
<stop stop-color="white" stop-opacity="0.01"/>
<stop offset="1" stop-color="white"/>
</linearGradient>
<linearGradient id="paint6_linear_0_655" x1="185.065" y1="98.3712" x2="166.819" y2="92.5098" gradientUnits="userSpaceOnUse">
<stop stop-color="white" stop-opacity="0.01"/>
<stop offset="1" stop-color="white"/>
</linearGradient>
<clipPath id="clip0_0_655">
<rect width="385" height="421" fill="white" transform="translate(97 36)"/>
</clipPath>
</defs>
</svg>
