<svg width="1440" height="801" viewBox="0 0 1440 801" fill="none" xmlns="http://www.w3.org/2000/svg">
<g opacity="0.4">
<mask id="mask0_0_156" style="mask-type:alpha" maskUnits="userSpaceOnUse" x="-201" y="-28" width="1642" height="829">
<path fill-rule="evenodd" clip-rule="evenodd" d="M-201 608.93L115.423 787.278C135.768 798.745 159.485 802.73 182.46 798.541L1440.18 569.234V-28H-3.66797L-201 608.93Z" fill="white"/>
</mask>
<g mask="url(#mask0_0_156)">
<g style="mix-blend-mode:screen" opacity="0.25385">
<path fill-rule="evenodd" clip-rule="evenodd" d="M790.309 270.734V589.969H629.219L635.875 182.461L790.309 270.734Z" fill="url(#paint0_linear_0_156)"/>
<path fill-rule="evenodd" clip-rule="evenodd" d="M656 234.395L772.875 301.852V371.367L656 301.852V234.395Z" fill="url(#paint1_linear_0_156)"/>
<path fill-rule="evenodd" clip-rule="evenodd" d="M634.785 181.184L748.48 113.957L905.285 210.5L790.461 271.473L634.785 181.184Z" fill="url(#paint2_linear_0_156)"/>
<path fill-rule="evenodd" clip-rule="evenodd" d="M906.297 588.938V210.367L790.449 270.074V588.938H906.297Z" fill="url(#paint3_linear_0_156)"/>
<path fill-rule="evenodd" clip-rule="evenodd" d="M691.309 416.734V735.969H530.219L536.875 328.461L691.309 416.734Z" fill="url(#paint4_linear_0_156)"/>
<path fill-rule="evenodd" clip-rule="evenodd" d="M557 380.395L673.875 447.852V517.367L557 447.852V380.395Z" fill="url(#paint5_linear_0_156)"/>
<path fill-rule="evenodd" clip-rule="evenodd" d="M535.785 327.184L649.48 259.957L806.285 356.5L691.461 417.473L535.785 327.184Z" fill="url(#paint6_linear_0_156)"/>
<path fill-rule="evenodd" clip-rule="evenodd" d="M807.297 734.938V356.367L691.449 416.074V734.938H807.297Z" fill="url(#paint7_linear_0_156)"/>
<path fill-rule="evenodd" clip-rule="evenodd" d="M413.383 527.832L554.695 444.809L385.051 345.836L233.926 431.551L413.383 527.832Z" fill="url(#paint8_linear_0_156)"/>
<path fill-rule="evenodd" clip-rule="evenodd" d="M519 444.07L383.438 365.574L261.312 444.07L397.355 519.152L519 444.07Z" fill="url(#paint9_linear_0_156)"/>
<path fill-rule="evenodd" clip-rule="evenodd" d="M556.039 444.496V736.812H423.578L413.914 527.738L556.039 444.496Z" fill="url(#paint10_linear_0_156)"/>
<path fill-rule="evenodd" clip-rule="evenodd" d="M-89.2383 198.944L82.6816 139.026L-201 22V158.988L-89.2383 198.944Z" fill="url(#paint11_linear_0_156)"/>
<path fill-rule="evenodd" clip-rule="evenodd" d="M82.2812 139.012V737.156H-77.4531L-89.8359 198.668L82.2812 139.012Z" fill="url(#paint12_linear_0_156)"/>
<path fill-rule="evenodd" clip-rule="evenodd" d="M-74.625 737.875V443.875L184.258 594.009L185.656 737.875H-74.625Z" fill="url(#paint13_linear_0_156)"/>
<path fill-rule="evenodd" clip-rule="evenodd" d="M-74.543 442.812L167.84 303.387L425.117 452.992L185.035 594.195L-74.543 442.812Z" fill="url(#paint14_linear_0_156)"/>
<path fill-rule="evenodd" clip-rule="evenodd" d="M425.5 452.27V736.508H184.229V594.389L425.5 452.27Z" fill="url(#paint15_linear_0_156)"/>
<path fill-rule="evenodd" clip-rule="evenodd" d="M0 602.935L34.7852 623.898L69.896 602.935L34.948 583.162L0 602.935Z" fill="#1DA4FB" stroke="#00BAED"/>
<path fill-rule="evenodd" clip-rule="evenodd" d="M-1 642.885L34.2207 663.445V624.153L-1 603.162V642.885Z" fill="#1D8CF8"/>
<path fill-rule="evenodd" clip-rule="evenodd" d="M69.6284 603.162V642.989L35 664.095V624.58L69.6284 603.162Z" fill="url(#paint16_linear_0_156)"/>
<path fill-rule="evenodd" clip-rule="evenodd" d="M519 548.469L598.547 498.469L676.633 548.469L605.195 591.18L519 548.469Z" fill="url(#paint17_linear_0_156)"/>
<path fill-rule="evenodd" clip-rule="evenodd" d="M519 736.367V549.242L606.336 592.355V736.367H519Z" fill="#385FF5"/>
<path fill-rule="evenodd" clip-rule="evenodd" d="M677.922 548.598V736.734H605.887V591.793L677.922 548.598Z" fill="url(#paint18_linear_0_156)"/>
<path fill-rule="evenodd" clip-rule="evenodd" d="M612.819 623.798L672.214 588.925V568.856L612.819 602.981V623.798Z" fill="#415CF2"/>
<path fill-rule="evenodd" clip-rule="evenodd" d="M613 651.754L672.395 616.881V596.812L613 630.938V651.754Z" fill="#4158F1"/>
<path fill-rule="evenodd" clip-rule="evenodd" d="M1211.39 586.332V355.273L1239 339.254V586.332H1211.39Z" fill="url(#paint19_linear_0_156)"/>
<path fill-rule="evenodd" clip-rule="evenodd" d="M1061.07 272.949L1211.42 354.891V586.406H1061.07V272.949Z" fill="url(#paint20_linear_0_156)"/>
<path fill-rule="evenodd" clip-rule="evenodd" d="M1191.3 542.379V478.531L1059 404.812V473.596L1191.3 542.379Z" fill="url(#paint21_linear_0_156)"/>
<path fill-rule="evenodd" clip-rule="evenodd" d="M1191.3 449.379V385.531L1059 311.812V380.596L1191.3 449.379Z" fill="url(#paint22_linear_0_156)"/>
<path fill-rule="evenodd" clip-rule="evenodd" d="M1212.11 354.754L1059.92 272.691L1212.11 169.656L1316.26 262.205L1264.59 327.461L1212.11 354.754Z" fill="#367EF2"/>
<path fill-rule="evenodd" clip-rule="evenodd" d="M975 467.469L1054.55 417.469L1132.63 467.469L1061.2 510.18L975 467.469Z" fill="url(#paint23_linear_0_156)"/>
<path fill-rule="evenodd" clip-rule="evenodd" d="M975 655.367V468.242L1062.34 511.355V655.367H975Z" fill="#3664F5"/>
<path fill-rule="evenodd" clip-rule="evenodd" d="M1133.92 467.598V655.734H1061.89V510.793L1133.92 467.598Z" fill="url(#paint24_linear_0_156)"/>
<path fill-rule="evenodd" clip-rule="evenodd" d="M1068.82 542.798L1128.21 507.925V487.856L1068.82 521.981V542.798Z" fill="#415CF2"/>
<path fill-rule="evenodd" clip-rule="evenodd" d="M1069 570.754L1128.39 535.881V515.812L1069 549.938V570.754Z" fill="#4158F1"/>
<path fill-rule="evenodd" clip-rule="evenodd" d="M497 586.935L531.785 607.898L566.896 586.935L531.948 567.162L497 586.935Z" fill="#38D0FC" stroke="#00BAED"/>
<path fill-rule="evenodd" clip-rule="evenodd" d="M496 626.885L531.221 647.445V608.153L496 587.162V626.885Z" fill="#36D0FC"/>
<path fill-rule="evenodd" clip-rule="evenodd" d="M566.628 587.162V626.989L532 648.095V608.58L566.628 587.162Z" fill="#7244D5"/>
</g>
</g>
</g>
<defs>
<linearGradient id="paint0_linear_0_156" x1="597.608" y1="404.026" x2="791.648" y2="431.71" gradientUnits="userSpaceOnUse">
<stop stop-color="#2A86FD"/>
<stop offset="1" stop-color="#4064F3"/>
</linearGradient>
<linearGradient id="paint1_linear_0_156" x1="606.024" y1="340.812" x2="743.683" y2="414.13" gradientUnits="userSpaceOnUse">
<stop stop-color="#3872F6"/>
<stop offset="1" stop-color="#3970F6"/>
</linearGradient>
<linearGradient id="paint2_linear_0_156" x1="634.785" y1="271.473" x2="905.285" y2="271.473" gradientUnits="userSpaceOnUse">
<stop stop-color="#01A6F4"/>
<stop offset="1" stop-color="#4272EF"/>
</linearGradient>
<linearGradient id="paint3_linear_0_156" x1="791.46" y1="210.367" x2="791.46" y2="582.33" gradientUnits="userSpaceOnUse">
<stop stop-color="#4264F4"/>
<stop offset="1" stop-color="#4142EF"/>
</linearGradient>
<linearGradient id="paint4_linear_0_156" x1="530.219" y1="328.461" x2="530.219" y2="735.969" gradientUnits="userSpaceOnUse">
<stop stop-color="#3478F7"/>
<stop offset="1" stop-color="#414CF3"/>
</linearGradient>
<linearGradient id="paint5_linear_0_156" x1="507.024" y1="486.812" x2="644.683" y2="560.13" gradientUnits="userSpaceOnUse">
<stop stop-color="#3872F6"/>
<stop offset="1" stop-color="#3970F6"/>
</linearGradient>
<linearGradient id="paint6_linear_0_156" x1="535.785" y1="259.957" x2="535.785" y2="417.473" gradientUnits="userSpaceOnUse">
<stop stop-color="#3C89F4"/>
<stop offset="1" stop-color="#357BF7"/>
</linearGradient>
<linearGradient id="paint7_linear_0_156" x1="692.46" y1="356.367" x2="692.46" y2="728.33" gradientUnits="userSpaceOnUse">
<stop stop-color="#4264F4"/>
<stop offset="1" stop-color="#4142EF"/>
</linearGradient>
<linearGradient id="paint8_linear_0_156" x1="252.243" y1="360.34" x2="269.059" y2="525.054" gradientUnits="userSpaceOnUse">
<stop stop-color="#3181F0"/>
<stop offset="1" stop-color="#3181F0"/>
</linearGradient>
<linearGradient id="paint9_linear_0_156" x1="519" y1="365.574" x2="261.312" y2="365.574" gradientUnits="userSpaceOnUse">
<stop stop-color="#3C79F2"/>
<stop offset="1" stop-color="#3C79F2"/>
</linearGradient>
<linearGradient id="paint10_linear_0_156" x1="415.225" y1="444.496" x2="415.225" y2="731.42" gradientUnits="userSpaceOnUse">
<stop stop-color="#455DF4"/>
<stop offset="1" stop-color="#463FF1"/>
</linearGradient>
<linearGradient id="paint11_linear_0_156" x1="97.9376" y1="66.6558" x2="-148.691" y2="-27.1119" gradientUnits="userSpaceOnUse">
<stop stop-color="#4184F4"/>
<stop offset="1" stop-color="#3A8AF0"/>
</linearGradient>
<linearGradient id="paint12_linear_0_156" x1="-89.8359" y1="139.012" x2="-89.8359" y2="737.156" gradientUnits="userSpaceOnUse">
<stop stop-color="#4086F6"/>
<stop offset="1" stop-color="#434BF0"/>
</linearGradient>
<linearGradient id="paint13_linear_0_156" x1="-214.29" y1="543.149" x2="-6.29628" y2="835.766" gradientUnits="userSpaceOnUse">
<stop stop-color="#494FFB"/>
<stop offset="1" stop-color="#4356FE"/>
</linearGradient>
<linearGradient id="paint14_linear_0_156" x1="-74.543" y1="592.549" x2="419.461" y2="592.549" gradientUnits="userSpaceOnUse">
<stop stop-color="#3672F7"/>
<stop offset="1" stop-color="#5715E5"/>
</linearGradient>
<linearGradient id="paint15_linear_0_156" x1="184.229" y1="452.27" x2="184.229" y2="736.508" gradientUnits="userSpaceOnUse">
<stop stop-color="#4F3AFF"/>
<stop offset="1" stop-color="#5123F6"/>
</linearGradient>
<linearGradient id="paint16_linear_0_156" x1="35" y1="603.162" x2="35" y2="664.095" gradientUnits="userSpaceOnUse">
<stop stop-color="#3860EB"/>
<stop offset="1" stop-color="#3861EC"/>
</linearGradient>
<linearGradient id="paint17_linear_0_156" x1="519" y1="591.18" x2="676.633" y2="591.18" gradientUnits="userSpaceOnUse">
<stop stop-color="#2880EE"/>
<stop offset="1" stop-color="#3A6EF4"/>
</linearGradient>
<linearGradient id="paint18_linear_0_156" x1="606.343" y1="548.598" x2="606.343" y2="734.351" gradientUnits="userSpaceOnUse">
<stop stop-color="#4555F3"/>
<stop offset="1" stop-color="#4342F0"/>
</linearGradient>
<linearGradient id="paint19_linear_0_156" x1="1211.39" y1="339.254" x2="1211.39" y2="586.332" gradientUnits="userSpaceOnUse">
<stop stop-color="#4263F4"/>
<stop offset="1" stop-color="#404BF0"/>
</linearGradient>
<linearGradient id="paint20_linear_0_156" x1="1059.39" y1="322.702" x2="1105.67" y2="591.668" gradientUnits="userSpaceOnUse">
<stop stop-color="#347BF7"/>
<stop offset="1" stop-color="#3B59F5"/>
</linearGradient>
<linearGradient id="paint21_linear_0_156" x1="1191.3" y1="404.812" x2="1059" y2="404.812" gradientUnits="userSpaceOnUse">
<stop stop-color="#386AF5"/>
<stop offset="1" stop-color="#3B62F4"/>
</linearGradient>
<linearGradient id="paint22_linear_0_156" x1="1191.3" y1="311.812" x2="1059" y2="311.812" gradientUnits="userSpaceOnUse">
<stop stop-color="#386AF5"/>
<stop offset="1" stop-color="#3B62F4"/>
</linearGradient>
<linearGradient id="paint23_linear_0_156" x1="975" y1="510.18" x2="1132.63" y2="510.18" gradientUnits="userSpaceOnUse">
<stop stop-color="#2880EE"/>
<stop offset="1" stop-color="#3A6EF4"/>
</linearGradient>
<linearGradient id="paint24_linear_0_156" x1="1062.34" y1="467.598" x2="1062.34" y2="653.351" gradientUnits="userSpaceOnUse">
<stop stop-color="#4555F3"/>
<stop offset="1" stop-color="#4342F0"/>
</linearGradient>
</defs>
</svg>
