<svg width="47" height="23" viewBox="0 0 47 23" fill="none" xmlns="http://www.w3.org/2000/svg">
<g clip-path="url(#clip0_0_242)">
<rect x="0.3125" y="0.921875" width="46" height="22" rx="3" fill="#FFC400"/>
<path d="M7.5445 16.9219V6.95387H8.4265L14.7825 15.4239L14.4465 15.5079V6.95387H15.5385V16.9219H14.6425L8.3005 8.46587L8.6225 8.36787V16.9219H7.5445ZM17.9898 16.9219V6.95387H24.2898V7.90587H19.1238V11.3779H24.0098V12.3439H19.1238V15.9699H24.2898V16.9219H17.9898ZM28.8683 16.9219L25.3682 6.95387H26.5443L29.5963 15.9419H29.1483L32.2703 6.95387L33.1523 6.96787L36.2183 15.9419H35.7843L38.8643 6.95387H39.9983L36.5123 16.9219H35.5323L32.5363 8.32587H32.8443L29.8343 16.9219H28.8683Z" fill="#00386D"/>
</g>
<defs>
<clipPath id="clip0_0_242">
<rect width="46" height="22" fill="white" transform="translate(0.3125 0.921875)"/>
</clipPath>
</defs>
</svg>
