<svg width="47" height="35" viewBox="0 0 47 35" fill="none" xmlns="http://www.w3.org/2000/svg">
<mask id="mask0_18_163" style="mask-type:alpha" maskUnits="userSpaceOnUse" x="0" y="0" width="47" height="35">
<path fill-rule="evenodd" clip-rule="evenodd" d="M0 0.0667725H46.9321V35H0V0.0667725Z" fill="white"/>
</mask>
<g mask="url(#mask0_18_163)">
<path fill-rule="evenodd" clip-rule="evenodd" d="M41.6602 7.99465C43.1104 8.00826 44.324 6.82604 44.3344 5.38974C44.3451 3.90483 43.1697 2.6983 41.705 2.6902C40.2512 2.68178 39.0461 3.85622 39.0289 5.2977C39.0111 6.77613 40.1864 7.98104 41.6602 7.99465ZM37.1142 7.9684C37.1142 6.53631 37.1333 5.15349 37.1051 3.77164C37.0931 3.19284 36.7709 2.7427 36.2222 2.54145C35.9227 2.43159 35.5762 2.41506 35.2507 2.41474C27.333 2.40826 19.415 2.40955 11.4973 2.40955C8.97871 2.40955 6.46015 2.40599 3.9416 2.41182C3.06157 2.41377 2.40162 2.88854 2.37472 3.65497C2.3248 5.08155 2.36046 6.51136 2.36046 7.9684H37.1142ZM2.35916 10.8416C2.34879 10.9829 2.33615 11.0766 2.33615 11.1702C2.33453 17.7956 2.33064 24.4213 2.33647 31.0467C2.33744 32.131 2.90533 32.6541 4.04046 32.6544C16.9946 32.656 29.9491 32.6557 42.9036 32.6531C43.1062 32.6531 43.3163 32.6457 43.5104 32.5945C44.2443 32.3997 44.5934 31.841 44.5937 30.8756C44.5953 24.3601 44.5947 17.8449 44.5937 11.3297C44.5937 11.1761 44.5791 11.0225 44.5697 10.8416H2.35916ZM23.4265 34.9971C16.9094 34.9968 10.3923 35.0001 3.87483 34.9949C1.96793 34.9933 0.451609 33.7786 0.0746364 31.9596C0.0117536 31.6546 0.00462261 31.3341 0.00462261 31.0208C0.000732959 22.0339 -0.00283256 13.0466 0.00332606 4.05974C0.00494675 1.65479 1.59614 0.0700639 4.0074 0.0694158C16.9946 0.0652028 29.9819 0.065851 42.9688 0.0710361C45.3149 0.0720084 46.9051 1.67391 46.9207 4.0753C46.9417 7.36465 46.9272 10.6543 46.9275 13.9437C46.9278 19.5625 46.9216 25.1813 46.932 30.8001C46.9343 31.9816 46.6662 33.0446 45.7995 33.8959C45.0173 34.6637 44.0679 35.001 42.9779 35.0001C37.7832 34.9952 32.5883 34.9978 27.3936 34.9978C26.0711 34.9978 24.749 34.9978 23.4265 34.9971Z" fill="#6D4BFF"/>
</g>
<path fill-rule="evenodd" clip-rule="evenodd" d="M32.1349 24.9893C31.4969 24.9893 30.9091 25 30.3219 24.98C30.2104 24.9763 30.0324 24.8722 30.0044 24.7795C29.3351 22.5668 28.6825 20.3499 28 18.0435C28.6286 18.0435 29.1908 18.0245 29.7493 18.0608C29.8524 18.0675 29.9923 18.2877 30.027 18.4301C30.3961 19.9536 30.747 21.4817 31.1046 23.0082C31.1177 23.0645 31.1501 23.1166 31.175 23.1743C31.4774 21.9274 31.7686 20.6971 32.0766 19.4712C32.1943 19.0035 32.2142 18.3701 32.5269 18.1319C32.8404 17.8937 33.4639 18.0532 33.9513 18.0418C34.1468 18.0371 34.342 18.0408 34.6187 18.0408C35.0198 19.7454 35.4198 21.445 35.8068 23.0886C36.2183 21.4483 36.644 19.7518 37.0677 18.0625H39C38.7405 18.9488 38.4941 19.8005 38.2413 20.6501C37.854 21.9534 37.4539 23.2527 37.0795 24.5593C36.9905 24.8695 36.8685 25.0253 36.5126 24.9966C36.0899 24.9626 35.6608 24.9686 35.2372 24.9946C34.9058 25.015 34.7916 24.8812 34.7221 24.573C34.346 22.9014 33.9459 21.2349 33.4434 19.5576C33.0113 21.3509 32.5792 23.1446 32.1349 24.9893Z" fill="#6D4BFF"/>
<path fill-rule="evenodd" clip-rule="evenodd" d="M10.1766 22.9976C10.5276 21.5928 10.9168 20.0816 11.2772 18.5638C11.3735 18.1581 11.5269 17.9618 11.9914 18.0061C12.509 18.0555 13.0349 18.0175 13.613 18.0175C14.019 19.755 14.4187 21.4645 14.7964 23.0796C15.1974 21.4768 15.6257 19.764 16.0565 18.0415H18C17.8872 18.4214 17.7831 18.7714 17.6791 19.121C17.1392 20.9352 16.5936 22.7477 16.0646 24.5645C15.9784 24.8601 15.8457 24.9881 15.5203 24.9664C15.0957 24.9378 14.6667 24.9431 14.2413 24.9661C13.9217 24.9834 13.789 24.8801 13.7163 24.5568C13.3414 22.8853 12.9363 21.2205 12.4566 19.5377C12.4164 19.6593 12.3667 19.7786 12.3367 19.9026C11.9698 21.4278 11.5968 22.9516 11.2478 24.4808C11.1668 24.8368 11.031 25.0024 10.6333 24.9674C10.1127 24.9218 9.44722 25.1217 9.10365 24.8704C8.76312 24.6211 8.73542 23.9459 8.58779 23.4526C8.09591 21.8098 7.61181 20.1649 7.12635 18.5204C7.08209 18.3708 7.04966 18.2178 7 18.0185C7.60066 18.0185 8.14186 17.9955 8.67866 18.0358C8.79927 18.0451 8.96616 18.2595 9.00501 18.4064C9.41648 19.9669 9.80599 21.5331 10.1766 22.9976Z" fill="#6D4BFF"/>
<path fill-rule="evenodd" clip-rule="evenodd" d="M24.1082 23.0844C24.4831 21.4434 24.8708 19.7462 25.2616 18.0355H27C26.9793 18.1685 26.9709 18.2932 26.9394 18.4105C26.3828 20.4681 25.8194 22.5237 25.2687 24.5829C25.191 24.8721 25.0799 25.0196 24.7758 24.9962C24.3872 24.966 23.9934 24.9663 23.6051 24.9972C23.2753 25.0233 23.1766 24.8688 23.1101 24.543C22.7985 23.0207 22.4607 21.5044 22.1302 19.9865C22.0968 19.8326 22.051 19.6818 21.939 19.5206C21.5412 21.3308 21.1436 23.141 20.738 24.9864C20.1458 24.9864 19.5769 24.9955 19.0088 24.9764C18.9244 24.9737 18.7941 24.8527 18.7691 24.7599C18.1723 22.5475 17.5869 20.331 17.0006 18.1153C16.9972 18.1022 17.0083 18.0844 17.0288 18.01C17.5157 18.01 18.0213 17.9906 18.5234 18.0261C18.6233 18.0335 18.765 18.2369 18.7954 18.374C19.1382 19.9201 19.463 21.4712 19.7941 23.0207C19.8037 23.0649 19.83 23.1048 19.8974 23.2593C19.9426 22.9681 19.9618 22.7744 20.0032 22.5863C20.3138 21.1807 20.6347 19.778 20.9366 18.3703C20.9945 18.1008 21.0929 17.9906 21.3574 18.0006C21.8951 18.0211 22.4341 18.0067 23.0188 18.0067C23.3904 19.7384 23.7555 21.4401 24.1082 23.0844Z" fill="#6D4BFF"/>
<path fill-rule="evenodd" clip-rule="evenodd" d="M41.0002 25C40.3422 25.0006 39.9958 24.6473 40 23.9801C40.0046 23.3343 40.3374 23.0033 40.9857 23C41.6403 22.9965 42.0092 23.365 41.9998 24.0125C41.9907 24.635 41.6218 24.9994 41.0002 25Z" fill="#6D4BFF"/>
</svg>
