<svg width="5" height="212" viewBox="0 0 5 212" fill="none" xmlns="http://www.w3.org/2000/svg">
<path d="M4.5 4C4.5 3.86719 4.44531 3.74219 4.35156 3.64844L0.851563 0.148437C0.757813 0.0546868 0.632813 -7.15256e-07 0.5 -7.15256e-07C0.226563 -7.15256e-07 0 0.226562 0 0.5V7.5C0 7.77344 0.226563 8 0.5 8C0.632813 8 0.757813 7.94531 0.851563 7.85156L4.35156 4.35156C4.44531 4.25781 4.5 4.13281 4.5 4ZM4.5 38C4.5 37.8672 4.44531 37.7422 4.35156 37.6484L0.851563 34.1484C0.757813 34.0547 0.632813 34 0.5 34C0.226563 34 0 34.2266 0 34.5V41.5C0 41.7734 0.226563 42 0.5 42C0.632813 42 0.757813 41.9453 0.851563 41.8516L4.35156 38.3516C4.44531 38.2578 4.5 38.1328 4.5 38ZM4.5 72C4.5 71.8672 4.44531 71.7422 4.35156 71.6484L0.851563 68.1484C0.757813 68.0547 0.632813 68 0.5 68C0.226563 68 0 68.2266 0 68.5V75.5C0 75.7734 0.226563 76 0.5 76C0.632813 76 0.757813 75.9453 0.851563 75.8516L4.35156 72.3516C4.44531 72.2578 4.5 72.1328 4.5 72ZM4.5 106C4.5 105.867 4.44531 105.742 4.35156 105.648L0.851563 102.148C0.757813 102.055 0.632813 102 0.5 102C0.226563 102 0 102.227 0 102.5V109.5C0 109.773 0.226563 110 0.5 110C0.632813 110 0.757813 109.945 0.851563 109.852L4.35156 106.352C4.44531 106.258 4.5 106.133 4.5 106ZM4.5 140C4.5 139.867 4.44531 139.742 4.35156 139.648L0.851563 136.148C0.757813 136.055 0.632813 136 0.5 136C0.226563 136 0 136.227 0 136.5V143.5C0 143.773 0.226563 144 0.5 144C0.632813 144 0.757813 143.945 0.851563 143.852L4.35156 140.352C4.44531 140.258 4.5 140.133 4.5 140ZM4.5 174C4.5 173.867 4.44531 173.742 4.35156 173.648L0.851563 170.148C0.757813 170.055 0.632813 170 0.5 170C0.226563 170 0 170.227 0 170.5V177.5C0 177.773 0.226563 178 0.5 178C0.632813 178 0.757813 177.945 0.851563 177.852L4.35156 174.352C4.44531 174.258 4.5 174.133 4.5 174ZM4.5 208C4.5 207.867 4.44531 207.742 4.35156 207.648L0.851563 204.148C0.757813 204.055 0.632813 204 0.5 204C0.226563 204 0 204.227 0 204.5V211.5C0 211.773 0.226563 212 0.5 212C0.632813 212 0.757813 211.945 0.851563 211.852L4.35156 208.352C4.44531 208.258 4.5 208.133 4.5 208Z" fill="white"/>
</svg>
